<svg width="430" height="484" viewBox="0 0 430 484" fill="none" xmlns="http://www.w3.org/2000/svg">
<path fill-rule="evenodd" clip-rule="evenodd" d="M258.423 25.7178C260.582 26.5307 262.356 27.8207 263.754 29.5696C263.536 36.4009 264.222 43.11 265.8 49.7145C266.005 51.5273 265.689 53.2417 264.857 54.8488C263.297 54.2866 262.113 53.3094 261.306 51.9082C260.484 44.7129 259.657 37.5494 258.826 30.4175C254.972 29.9723 252.424 31.6567 251.175 35.4884C252.761 36.1201 254.167 37.031 255.398 38.2117C257.474 44.5203 257.489 50.707 255.446 56.7723C252.413 57.2531 249.585 56.5582 246.969 54.6796C244.829 58.5946 241.536 59.9083 237.092 58.6114C234.135 61.3102 231.228 61.1365 228.376 58.0817C225.827 51.935 226.404 46.0517 230.109 40.4324C226.286 35.1278 226.629 30.0684 231.147 25.2363C235.371 23.6241 238.715 24.7738 241.177 28.6853C242.201 31.4786 242.997 34.3126 243.556 37.2053C246.097 34.0571 248.364 30.7242 250.359 27.2068C253.145 26.8691 255.829 26.3784 258.423 25.7178Z" fill="#161616"/>
<path fill-rule="evenodd" clip-rule="evenodd" d="M214.075 33.3486C217.196 34.3956 219.114 36.501 219.829 39.6643C221.319 46.9312 222.068 54.2461 222.082 61.6001C219.464 63.866 216.93 63.6927 214.484 61.081C214.241 58.4065 215.448 56.7779 218.108 56.1957C217.114 50.8226 216.124 45.4402 215.13 40.0671C214.504 39.2079 213.692 38.6009 212.687 38.2551C211.777 41.6651 209.829 42.5439 206.848 40.8833C208.172 37.2473 210.58 34.7387 214.075 33.3486Z" fill="#191919"/>
<path fill-rule="evenodd" clip-rule="evenodd" d="M184.721 16.0762C191.19 19.6347 192.934 24.6392 189.945 31.1079C180.97 35.7593 176.378 33.0266 176.158 22.9274C176.626 20.5494 177.692 18.4664 179.348 16.6963C181.338 17.2544 183.129 17.0478 184.721 16.0762Z" fill="#171717"/>
<path fill-rule="evenodd" clip-rule="evenodd" d="M167.056 39.6125C161.46 40.4214 155.93 41.714 150.472 43.4808C148.162 41.0851 146.621 38.2408 145.857 34.9397C144.255 33.4908 142.686 33.6311 141.157 35.3425C142.12 39.756 142.525 44.0864 142.376 48.3238C141.081 47.8407 139.971 47.0815 139.043 46.0562C137.706 42.3051 136.622 38.5707 135.795 34.8446C143.42 25.6603 148.773 26.9064 151.86 38.5744C157.191 36.978 162.572 35.6099 167.999 34.4782C169.222 31.2397 169.254 27.8858 168.094 24.4164C164.402 25.6158 160.67 26.323 156.893 26.5466C155.155 24.2641 153.839 21.7145 152.94 18.9063C151.133 20.8906 149.916 23.2673 149.295 26.0276C146.985 25.2495 146.105 23.6758 146.656 21.3067C147.279 18.626 148.491 16.2582 150.301 14.1854C155.074 14.6961 158.03 17.3328 159.171 22.0958C166.972 21.6624 168.495 18.3195 163.738 12.0763C164.041 10.4002 164.655 8.83801 165.572 7.39765C171.336 15.6844 173.706 24.9524 172.688 35.1934C170.978 36.8682 169.104 38.3353 167.056 39.6125Z" fill="#181818"/>
<path fill-rule="evenodd" clip-rule="evenodd" d="M274.808 90.274C278.135 91.8086 278.342 93.5995 275.428 95.6467C271.828 94.3546 271.621 92.5637 274.808 90.274Z" fill="#1A1A1A"/>
<path fill-rule="evenodd" clip-rule="evenodd" d="M263.173 91.0587C266.509 92.991 266.565 95.0757 263.337 97.3216C261.963 97.1686 260.698 96.7121 259.548 95.944C260.359 93.9772 261.567 92.349 263.173 91.0587Z" fill="#171717"/>
<path fill-rule="evenodd" clip-rule="evenodd" d="M202.831 39.9504C205.537 40.8638 207.01 42.7409 207.25 45.5826C208.174 51.4926 209.084 57.3958 209.99 63.2743C204.197 66.2629 198.281 69.0424 192.246 71.6039C190.756 72.1896 189.268 72.1693 187.774 71.5617C184.949 66.2849 182.766 60.6738 181.224 54.7285C180.307 49.4281 182.279 45.5737 187.148 43.1564C189.991 41.9382 192.831 41.1453 195.668 40.7772C197.604 47.9356 199.774 55.0344 202.175 62.0823C204.671 61.2146 205.583 59.4342 204.909 56.7413C204.205 52.0562 203.207 47.4223 201.909 42.8487C201.912 41.783 202.22 40.8172 202.831 39.9504Z" fill="#161616"/>
<path fill-rule="evenodd" clip-rule="evenodd" d="M192.044 45.6622C193.911 50.6504 195.799 55.7399 197.714 60.9217C196.803 61.601 196.132 61.4488 195.706 60.4555C193.66 56.0269 191.84 51.5342 190.243 46.9869C190.876 46.547 191.478 46.1023 192.044 45.6622Z" fill="#C7C7C7"/>
<path fill-rule="evenodd" clip-rule="evenodd" d="M167.056 39.6121C166.675 40.1134 166.15 40.4068 165.482 40.4917C167.361 41.6669 168.914 43.0233 170.14 44.5608C165.519 41.1057 161.787 41.8128 158.939 46.6911C160.475 47.6234 162.108 48.0887 163.845 48.0792C162.963 49.3576 161.759 50.2465 160.242 50.7285C161.227 51.9852 162.108 53.189 162.892 54.3315C158.643 53.078 154.466 53.5572 150.356 55.7783C148.851 57.2547 147.939 59.035 147.622 61.1192C148.231 66.4529 149.073 71.7592 150.155 77.02C150.789 78.3896 151.826 79.2907 153.26 79.7327C151.564 79.9318 149.93 79.4664 148.353 78.3446C147.423 80.5197 146.214 82.5181 144.719 84.3479C143.78 84.7098 142.883 84.6329 142.038 84.099C144.581 83.1538 146.087 81.3076 146.562 78.5513C143.701 72.2675 140.701 66.0583 137.57 59.9061C136.392 58.5501 134.909 57.791 133.12 57.6279C131.568 58.687 129.994 59.5666 128.399 60.2666C127.887 58.1625 128.791 57.1307 131.111 57.1616C130.728 56.3025 129.838 55.8468 128.441 55.7947C131.253 54.6392 134.1 53.4676 136.971 52.2975C137.183 51.0351 136.747 50.0592 135.657 49.378C130.227 50.1371 125.065 51.8088 120.181 54.3749C118.356 53.7892 117.547 52.4425 117.759 50.3269C122.76 48.5839 127.698 46.618 132.574 44.4293C133.928 43.2467 134.685 41.769 134.852 39.9785C133.308 37.8852 132.436 35.5629 132.234 33.0216C132.833 33.2049 133.429 33.1389 134.025 32.815C133.522 35.8152 134.113 36.4885 135.795 34.8442C136.622 38.5704 137.706 42.3047 139.043 46.0558C139.971 47.0811 141.081 47.8403 142.376 48.3235C142.525 44.086 142.12 39.7556 141.157 35.3422C142.686 33.6307 144.255 33.4904 145.857 34.9394C146.622 38.2405 148.162 41.0847 150.472 43.4804C155.93 41.7136 161.46 40.421 167.056 39.6121Z" fill="#E9E9E9"/>
<path fill-rule="evenodd" clip-rule="evenodd" d="M236.012 78.2795C237.626 79.0944 238.882 80.2991 239.78 81.893C241.001 86.5285 241.778 91.2291 242.106 96.0028C241.483 98.6835 240.271 101.051 238.461 103.124C236.225 103.013 234.141 102.328 232.219 101.053C233.254 98.8637 234.983 97.6815 237.396 97.5236C237.942 92.7031 237.313 88.0786 235.514 83.6416C233.636 84.3654 231.848 84.2027 230.152 83.1437C231.075 80.0437 233.027 78.4253 236.012 78.2795Z" fill="#171717"/>
<path fill-rule="evenodd" clip-rule="evenodd" d="M186.184 50.5265C188.803 55.6081 191.44 60.6989 194.089 65.8072C192.561 67.5186 190.991 67.659 189.39 66.21C188.015 61.9452 186.637 57.6897 185.262 53.4248C185.265 52.3591 185.573 51.3933 186.184 50.5265Z" fill="#DDDDDD"/>
<path fill-rule="evenodd" clip-rule="evenodd" d="M248.845 92.7121C252.637 94.1026 253.508 96.4244 251.463 99.6689C246.468 99.1678 245.592 96.8549 248.845 92.7121Z" fill="#1C1C1C"/>
<path fill-rule="evenodd" clip-rule="evenodd" d="M132.234 33.0215C132.437 35.5628 133.308 37.885 134.852 39.9783C134.685 41.7688 133.928 43.2465 132.574 44.4291C127.698 46.6179 122.76 48.5837 117.759 50.3267C117.547 52.4424 118.356 53.789 120.181 54.3747C125.065 51.8086 130.227 50.1369 135.657 49.3779C136.747 50.059 137.183 51.035 136.972 52.2973C134.1 53.4674 131.253 54.6391 128.441 55.7945C125.094 56.4852 121.878 57.6475 118.793 59.2812C117.301 59.2702 116.113 58.6624 115.232 57.4586C114.788 55.6811 114.13 54.0411 113.266 52.5204C113.513 50.0853 114.431 47.9267 116.011 46.0615C120.795 44.8934 125.287 43.0695 129.479 40.5984C128.335 35.5191 126.743 30.5813 124.7 25.7945C122.771 25.6725 121.275 26.4008 120.207 27.9882C121.125 31.6937 121.983 35.5033 122.782 39.417C121.902 42.7974 120.407 43.1558 118.299 40.4927C116.648 32.7051 113.889 25.2938 110.012 18.2763C106.381 18.9566 103.163 20.4884 100.353 22.8809C100.422 23.4777 100.491 24.075 100.56 24.6718C103.363 23.7591 106.201 23.3356 109.069 23.4106C111.981 29.7656 113.784 36.4853 114.469 43.5871C112.055 44.2392 109.734 45.118 107.512 46.2048C105.616 47.0768 103.904 46.7623 102.377 45.2617C100.247 37.9812 97.7067 30.873 94.7524 23.9461C95.8228 20.1914 98.2303 17.6828 101.979 16.4114C104.985 14.3213 108.272 13.3863 111.845 13.5977C114.375 16.4539 116.282 19.6773 117.568 23.2673C119.558 22.6233 121.576 21.9715 123.624 21.312C125.413 21.4752 126.896 22.2343 128.075 23.5902C129.683 26.6605 131.068 29.8069 132.234 33.0215Z" fill="#181818"/>
<path fill-rule="evenodd" clip-rule="evenodd" d="M113.266 52.5213C112.968 51.1334 112.227 50.7538 111.04 51.3822C111.655 49.4501 112.269 47.5176 112.884 45.5856C111.21 46.8408 109.419 47.0475 107.511 46.2056C109.734 45.1188 112.055 44.24 114.468 43.588C113.784 36.4862 111.981 29.7664 109.069 23.4114C106.201 23.3365 103.363 23.76 100.559 24.6727C100.491 24.0759 100.421 23.4786 100.353 22.8818C103.162 20.4893 106.381 18.9575 110.012 18.2772C113.889 25.2947 116.648 32.7059 118.299 40.4936C120.407 43.1566 121.902 42.7982 122.782 39.4179C121.983 35.5042 121.125 31.6946 120.206 27.9891C121.275 26.4016 122.771 25.6734 124.699 25.7954C126.743 30.5822 128.335 35.5199 129.479 40.5993C125.286 43.0704 120.795 44.8942 116.01 46.0623C114.431 47.9276 113.512 50.0862 113.266 52.5213Z" fill="#E3E3E3"/>
<path fill-rule="evenodd" clip-rule="evenodd" d="M170.141 44.5607C174.564 52.498 177.913 60.9528 180.187 69.9244C180.036 71.296 179.574 72.5649 178.81 73.7128C177.805 73.367 176.992 72.76 176.367 71.9008C174.048 64.7263 171.733 57.5424 169.415 50.3679C168.132 47.4532 166.279 46.6843 163.846 48.0791C162.109 48.0886 160.476 47.6232 158.94 46.691C161.787 41.8126 165.519 41.1055 170.141 44.5607Z" fill="#181818"/>
<path fill-rule="evenodd" clip-rule="evenodd" d="M162.892 54.3316C164.825 58.9725 166.494 63.7585 167.899 68.6904C172.596 74.3637 171.513 78.6737 164.646 81.6294C160.425 80.9178 158.134 78.4421 157.784 74.1852C158.755 70.222 159.836 66.2819 161.027 62.3642C160.441 60.9521 159.858 59.5302 159.278 58.0989C156.52 58.0013 154.054 58.7951 151.876 60.4887C152.174 65.247 152.947 69.9565 154.203 74.5986C154.408 76.4114 154.092 78.1258 153.26 79.7328C151.825 79.2908 150.789 78.3897 150.155 77.0201C149.073 71.7593 148.231 66.453 147.621 61.1193C147.939 59.0351 148.85 57.2548 150.355 55.7784C154.466 53.5574 158.643 53.0781 162.892 54.3316Z" fill="#161616"/>
<path fill-rule="evenodd" clip-rule="evenodd" d="M219.448 79.9115C226.714 87.4615 229.24 96.4269 227.021 106.817C223.927 111.289 220.195 111.996 215.82 108.947C215.937 104.346 217.962 103.315 221.886 105.874C223.6 103.055 224.225 100.005 223.762 96.7235C222.676 93.359 221.589 89.9945 220.503 86.6299C217.257 84.5867 214.941 85.4566 213.546 89.2476C212.36 88.6402 211.172 88.0324 209.985 87.425C210.766 85.5441 211.826 83.8399 213.164 82.3118C215.386 81.7188 217.477 80.9246 219.448 79.9115Z" fill="#1C1C1C"/>
<path fill-rule="evenodd" clip-rule="evenodd" d="M105.901 27.406C107.96 31.4819 109.113 35.8131 109.356 40.4084C107.79 41.6065 106.376 41.4442 105.112 39.9211C103.945 36.3018 102.787 32.7098 101.636 29.1546C103.098 28.5888 104.521 28.003 105.901 27.406Z" fill="#E4E4E4"/>
<path fill-rule="evenodd" clip-rule="evenodd" d="M163.2 69.0934C165.943 71.2728 166.812 73.9644 165.807 77.1682C161.799 75.4877 160.93 72.796 163.2 69.0934Z" fill="#CFCFCF"/>
<path fill-rule="evenodd" clip-rule="evenodd" d="M196.591 85.0623C199.482 86.1379 201.474 88.1009 202.573 90.9329C204.72 95.9751 206.388 101.131 207.57 106.41C206.07 112.607 202.628 113.845 197.249 110.114C198.01 108.627 198.766 107.149 199.527 105.663C200.417 106.118 201.307 106.574 202.197 107.03C202.827 100.533 200.792 94.9979 196.093 90.4244C195.637 91.3145 195.182 92.2047 194.726 93.0948C191.538 91.1483 191.41 88.8362 194.344 86.1591C195.229 86.0051 195.979 85.6365 196.591 85.0623Z" fill="#181818"/>
<path fill-rule="evenodd" clip-rule="evenodd" d="M142.038 84.099C139.097 84.717 136.496 83.9473 134.233 81.7891C133.435 79.3249 132.641 76.8513 131.843 74.3871C132.943 71.5352 134.31 68.8647 135.944 66.3757C135.867 63.955 134.833 62.684 132.849 62.5449C129.646 64.41 127.085 66.8514 125.177 69.8518C127.054 74.0364 129.328 78.0087 131.997 81.7679C133.168 84.0527 133.444 86.4404 132.824 88.9315C128.919 91.7971 124.654 93.5457 120.028 94.1773C113.988 85.4237 110.649 75.8509 110.013 65.4597C111.308 65.9428 112.418 66.702 113.346 67.7273C115.378 74.8003 117.847 81.6811 120.754 88.3701C121.422 89.5549 122.39 89.8592 123.652 89.292C124.75 88.5622 125.947 88.0516 127.244 87.7606C128.294 87.1744 128.749 86.2842 128.611 85.0902C125.256 80.0365 122.77 74.652 121.161 68.9193C121.328 67.1288 122.085 65.6512 123.439 64.4685C125.611 63.6478 127.264 62.247 128.399 60.2667C129.994 59.5666 131.567 58.687 133.12 57.6279C134.909 57.7911 136.392 58.5502 137.57 59.9062C140.701 66.0584 143.701 72.2675 146.562 78.5514C146.087 81.3077 144.581 83.1539 142.038 84.099Z" fill="#151515"/>
<path fill-rule="evenodd" clip-rule="evenodd" d="M138.127 71.9864C140.252 73.1643 141.577 74.9658 142.101 77.3907C142.187 79.693 140.988 80.5735 138.498 80.0401C137.767 78.5425 137.035 77.0445 136.304 75.547C135.899 73.8678 136.505 72.6839 138.127 71.9864Z" fill="#E1E1E1"/>
<path fill-rule="evenodd" clip-rule="evenodd" d="M152.635 98.5104C154.512 99.2916 156.22 100.345 157.748 101.689C159.494 108.268 161.895 114.552 164.949 120.541C165.234 122.024 164.924 123.36 164.017 124.558C162.722 124.074 161.612 123.315 160.684 122.29C157.991 116.238 155.738 110.03 153.928 103.666C151.601 104.239 149.651 105.487 148.078 107.412C150.33 111.687 152.376 116.105 154.214 120.663C153.427 123.923 151.834 126.668 149.441 128.892C147.355 128.577 145.575 127.666 144.1 126.158C142.16 122.379 140.63 118.417 139.516 114.263C140.436 111.735 141.351 109.215 142.271 106.686C142.042 104.648 140.934 103.519 138.949 103.301C135.386 104.353 132.02 105.809 128.845 107.677C130.927 115.281 133.239 122.835 135.786 130.328C134.683 132.886 133.339 132.951 131.76 130.514C128.367 122.7 126.134 114.626 125.056 106.3C129.643 102.828 134.739 100.191 140.337 98.3942C142.501 99.1763 144.203 100.609 145.44 102.691C147.998 101.586 150.395 100.195 152.635 98.5104Z" fill="#161616"/>
<path fill-rule="evenodd" clip-rule="evenodd" d="M178.683 87.1292C181.574 88.2049 183.565 90.1678 184.665 92.9998C185.47 96.2655 186.707 99.3363 188.379 102.203C188.943 105.491 189.511 108.77 190.075 112.058C188.398 117.053 185.18 118.585 180.416 116.663C179.628 113.181 178.993 109.666 178.503 106.135C178.994 103.668 180.428 101.964 182.8 101.032C181.927 97.9459 180.839 94.9512 179.531 92.0568C174.509 92.9803 170.758 95.5535 168.277 99.777C169.4 105.553 170.983 111.239 173.035 116.817C172.884 118.188 172.422 119.457 171.658 120.605C167.068 113.695 164.459 105.99 163.826 97.4988C164.665 94.648 166.475 92.5752 169.251 91.2888C172.545 90.1549 175.689 88.7651 178.683 87.1292Z" fill="#171717"/>
<path fill-rule="evenodd" clip-rule="evenodd" d="M182.985 105.059C185.645 107.577 185.919 110.335 183.802 113.34C183.26 110.558 182.991 107.791 182.985 105.059Z" fill="#B5B5B5"/>
<path fill-rule="evenodd" clip-rule="evenodd" d="M144.455 112.298C146.827 114.602 148.588 117.379 149.743 120.622C149.731 122.109 149.12 123.302 147.921 124.182C145.594 120.43 144.438 116.468 144.455 112.298Z" fill="#CBCBCB"/>
<path fill-rule="evenodd" clip-rule="evenodd" d="M340.66 220.594C342.685 221.821 344.606 223.187 346.436 224.674C343.357 231.624 339.177 232.473 333.889 227.239C333.898 224.704 334.815 222.545 336.633 220.78C338.057 220.857 339.401 220.792 340.66 220.594Z" fill="#8F8F8F"/>
<path fill-rule="evenodd" clip-rule="evenodd" d="M350.262 245.73C356.723 249.666 356.465 253.095 349.494 256.009C344.065 254.544 343.125 251.625 346.669 247.261C347.996 246.963 349.193 246.452 350.262 245.73Z" fill="#909090"/>
<path fill-rule="evenodd" clip-rule="evenodd" d="M361.792 256.125C366.672 259.904 366.414 263.333 361.024 266.404C359.65 266.252 358.385 265.795 357.236 265.027C357.688 261.495 359.21 258.522 361.792 256.125Z" fill="#898989"/>
<path fill-rule="evenodd" clip-rule="evenodd" d="M310.12 234.17C313.021 235.835 314.937 238.309 315.864 241.604C312.802 248.305 309.221 248.718 305.119 242.844C306.012 239.459 307.683 236.562 310.12 234.17Z" fill="#909090"/>
<path fill-rule="evenodd" clip-rule="evenodd" d="M379.532 271.946C382.452 273.048 384.669 274.935 386.187 277.599C384.634 282.803 381.566 284.041 376.983 281.314C375.449 277.551 376.295 274.435 379.532 271.946Z" fill="#909090"/>
<path fill-rule="evenodd" clip-rule="evenodd" d="M325.147 253.096C332.549 258.221 331.986 262.247 323.468 265.155C321.705 265.062 320.447 264.227 319.69 262.66C319.708 258.288 321.528 255.096 325.147 253.096Z" fill="#8C8C8C"/>
<path fill-rule="evenodd" clip-rule="evenodd" d="M348.165 278.358C355.129 281.081 355.615 284.52 349.633 288.659C347.87 288.565 346.612 287.73 345.855 286.163C346.061 283.393 346.832 280.788 348.165 278.358Z" fill="#8B8B8B"/>
<path fill-rule="evenodd" clip-rule="evenodd" d="M380.19 296.998C386.105 301.015 386.291 305.042 380.746 309.079C378.345 308.703 376.792 307.347 376.089 305.01C376.369 301.738 377.736 299.068 380.19 296.998Z" fill="#8D8D8D"/>
<path fill-rule="evenodd" clip-rule="evenodd" d="M389.42 314.08C394.423 316.955 394.612 320.243 389.998 323.924C383.434 321.194 383.244 317.906 389.42 314.08Z" fill="#888888"/>
<path fill-rule="evenodd" clip-rule="evenodd" d="M360.044 299.044C367.574 302.741 367.613 306.322 360.166 309.778C357.833 309.505 356.429 308.225 355.953 305.937C356.568 303.151 357.933 300.851 360.044 299.044Z" fill="#8B8B8B"/>
<path fill-rule="evenodd" clip-rule="evenodd" d="M359.896 314.695C365.983 319.215 365.575 322.938 358.672 325.864C352.446 324.228 351.063 320.711 354.523 315.315C356.404 315.267 358.195 315.06 359.896 314.695Z" fill="#959495"/>
<path fill-rule="evenodd" clip-rule="evenodd" d="M391.009 335.115C398.332 338.234 398.672 341.958 392.021 346.305C390.258 346.212 389 345.377 388.243 343.81C388.394 340.686 389.316 337.787 391.009 335.115Z" fill="#8B8B8B"/>
<path fill-rule="evenodd" clip-rule="evenodd" d="M367.802 329.976C372.116 332.499 372.532 335.711 369.053 339.603C365.759 340.917 363.682 339.853 362.822 336.414C363.527 333.472 365.184 331.332 367.802 329.976Z" fill="#898989"/>
<path fill-rule="evenodd" clip-rule="evenodd" d="M395.27 357.517C392.514 359.734 389.663 361.645 386.719 363.25C387.798 360.781 389.159 358.489 390.809 356.356C392.417 356.191 393.902 356.581 395.27 357.517Z" fill="#828282"/>
<path fill-rule="evenodd" clip-rule="evenodd" d="M347.551 343.202C344.344 359.725 337.343 374.498 326.559 387.503C321.492 391.402 317.126 395.908 313.462 401.02C309.916 401.025 307.215 402.642 305.366 405.863C300.352 410.104 295.097 414.154 289.598 418.012C277.77 422.698 265.806 426.684 253.706 429.972C249.962 430.381 246.157 430.5 242.298 430.311C244.75 431.544 247.429 432.163 250.331 432.176C251.788 432.495 253.056 432.212 254.14 431.318C265.05 429.904 275.589 426.873 285.756 422.225C288.143 421.952 290.534 421.671 292.92 421.398C299.048 423.232 305.069 425.37 310.972 427.83C310.152 429.669 308.798 430.852 306.913 431.37C302.475 429.906 298.092 428.225 293.768 426.326C292.276 426.315 290.788 426.294 289.296 426.283C280.5 429.061 271.827 432.103 263.27 435.429C254.657 436.537 246.083 436.461 237.556 435.186C231.275 432.904 225.19 430.16 219.297 426.963C215.083 423.604 210.409 421.032 205.283 419.228C198.826 419.315 192.496 418.513 186.298 416.812C179.248 413.013 172.049 409.519 164.706 406.322C163.5 405.963 162.382 405.952 161.352 406.29C156.054 404.791 150.615 404.445 145.038 405.241C135.486 408.698 125.842 411.446 116.114 413.465C108.965 411.637 102.055 409.043 95.3913 405.666C91.3722 406.361 87.4165 406.774 83.528 406.896C77.0729 406.681 70.5928 406.173 64.0878 405.37C57.8478 402.929 51.914 399.892 46.2846 396.257C45.9998 394.977 46.2364 393.784 46.9892 392.686C54.042 396.768 61.5414 399.675 69.4922 401.396C41.3628 383.908 36.2833 361.278 54.2573 333.497C56.3921 331.927 58.4917 330.384 60.5624 328.86C60.4496 324.904 60.0379 320.953 59.3329 316.997C59.5617 311.722 61.2462 306.967 64.3873 302.733C78.4437 298.11 92.3512 293.254 106.118 288.145C106.137 286.279 106.151 284.422 106.171 282.555C103.106 273.842 100.507 265.019 98.3708 256.095C99.464 253.048 101.127 250.53 103.362 248.539C100.516 240.477 97.2358 232.619 93.5219 224.966C92.5919 223.614 91.3279 223.158 89.7334 223.589C87.1454 226.364 84.5356 226.343 81.9075 223.515C79.4486 219.83 79.5578 216.324 82.2305 213.008C86.9031 211.502 91.6134 209.981 96.3615 208.446C99.621 209.283 101.991 211.237 103.462 214.327C108.537 223.496 112.172 233.221 114.367 243.5C120.625 254.062 125.365 265.284 128.583 277.177C137.168 274.28 145.697 271.153 154.164 267.803C155.975 265.73 157.187 263.363 157.809 260.682C153.763 228.953 150.184 197.172 147.083 165.32C144.258 159.335 141.034 153.562 137.407 148.01C137.132 145.622 138.044 143.842 140.141 142.669C178.952 132.99 217.443 122.17 255.611 110.218C270.291 116.744 284.989 123.144 299.705 129.419C298.559 133.415 297.104 137.355 295.345 141.229C295.862 142.438 296.751 143.263 298.005 143.714C295.523 154.745 293.777 165.838 292.771 176.984C291.286 204.555 288.639 232.038 284.836 259.423C287.272 262.153 290.313 263.53 293.965 263.535C324.162 276.295 342.063 298.748 347.667 330.904C347.63 335.03 347.589 339.132 347.551 343.202Z" fill="#140C0C"/>
<path fill-rule="evenodd" clip-rule="evenodd" d="M308.076 308.391C311.059 314.175 313.687 320.014 315.961 325.907C313.356 322.417 310.629 318.965 307.785 315.544C308.379 315.387 308.904 315.094 309.359 314.664C308.242 312.666 307.812 310.581 308.076 308.391Z" fill="#C05518"/>
<path fill-rule="evenodd" clip-rule="evenodd" d="M186.952 253.131C187.842 253.586 188.732 254.042 189.622 254.498C188.711 256.278 187.8 258.058 186.888 259.839C186.738 260.132 186.583 260.435 186.433 260.729C186.379 258.724 186.993 256.792 188.276 254.932C187.09 254.325 185.902 253.717 184.716 253.109C184.225 254.656 183.322 255.688 182.003 256.214C182.764 254.728 183.52 253.25 184.281 251.764C185.171 252.219 186.062 252.675 186.952 253.131Z" fill="#686969"/>
<path fill-rule="evenodd" clip-rule="evenodd" d="M286.649 304.163C290.268 307.768 292.616 311.959 293.686 316.752C291.931 315.135 290.457 313.257 289.267 311.12C286.926 311.686 284.614 311.446 282.341 310.384C278.368 310.923 274.486 311.924 270.685 313.404C251.485 317.046 235.816 326.809 223.672 342.701C217.297 352.75 212.87 363.594 210.395 375.223C210.783 381.5 211.768 387.621 213.352 393.588C214.082 399.241 217.103 403.215 222.407 405.525C223.358 407.326 224.312 409.118 225.263 410.919C230.358 414.313 234.642 418.382 238.118 423.116C230.398 420.265 222.981 416.469 215.864 411.724C211.217 408.762 206.771 405.744 202.532 402.654C201.54 399.764 199.922 397.071 197.689 394.558C197.172 390.44 194.815 387.728 190.61 386.441C190.705 384.366 190.649 382.281 190.446 380.178C188.146 377.057 185.415 374.345 182.249 372.05C181.054 369.517 180.037 366.75 179.197 363.747C178.982 354.954 179.364 346.162 180.341 337.371C181.098 333.355 182.475 329.567 184.473 326.006C189.161 316.161 194.908 307.127 201.724 298.888C202.18 297.998 202.636 297.108 203.091 296.217C206.011 294.454 209.009 292.619 212.088 290.712C213.112 289.787 213.871 288.67 214.356 287.379C224.443 282.151 235.197 280.163 246.613 281.423C251.874 284.139 257.375 285.831 263.113 286.499C268.841 291.138 274.99 295.218 281.557 298.748C282.828 300.983 284.528 302.785 286.649 304.163Z" fill="#FC9334"/>
<path fill-rule="evenodd" clip-rule="evenodd" d="M264.151 271.303C261.871 271.832 259.485 272.104 256.988 272.13C257.93 273.679 259.259 274.741 260.983 275.298C257.855 275.303 254.651 274.978 251.377 274.313C249.437 274.443 247.645 275.02 245.994 276.051C250.978 276.703 256.034 277.798 261.169 279.325C270.089 282.7 278.092 287.549 285.182 293.863C291.023 301.055 296.093 308.706 300.394 316.816C300.244 317.11 300.089 317.412 299.939 317.706C302.448 323.484 304.624 329.474 306.477 335.657C307.775 340.231 308.773 344.865 309.477 349.55C309.725 354.249 309.979 358.873 310.24 363.421C309.936 370.815 308.824 378.11 306.903 385.304C305.707 391.275 303.566 396.92 300.481 402.239C299.398 402.684 298.203 402.825 296.899 402.652C295.64 403.636 294.441 404.516 293.296 405.301C303.812 388.733 307.705 370.886 304.984 351.744C304.512 348.75 304.536 345.774 305.068 342.8C302.826 341.585 302.096 339.717 302.885 337.189C300.997 331.751 299.408 326.444 298.116 321.267C296.262 320.093 294.787 318.586 293.686 316.753C292.617 311.959 290.269 307.769 286.65 304.164C284.75 300.574 282.32 297.274 279.364 294.256C271.361 289.407 263.053 285.154 254.44 281.497C251.73 281.47 249.119 281.448 246.614 281.423C235.198 280.163 224.444 282.152 214.357 287.38C209.875 289.253 206.121 292.196 203.092 296.218C202.636 297.108 202.181 297.998 201.725 298.888C198.946 299.904 196.695 301.74 194.964 304.415C190.505 311.321 187.008 318.519 184.474 326.007C182.476 329.567 181.098 333.356 180.341 337.372C179.365 346.162 178.983 354.954 179.198 363.748C180.038 366.75 181.054 369.518 182.25 372.051C181.404 371.517 180.508 371.44 179.569 371.802C176.644 375.315 173.364 375.501 169.724 372.379C172.124 372.698 174.514 372.416 176.888 371.553C176.043 368.042 175.183 364.603 174.302 361.242C174.911 359.7 174.929 358.204 174.344 356.77C175.211 348.406 176.483 340.07 178.158 331.761C174.036 329.64 170.158 329.901 166.523 332.545C156.712 332.309 147.084 333.56 137.641 336.297C138.426 338.699 139.075 341.087 139.585 343.471C141.179 350.331 142.452 357.353 143.411 364.528C142.453 367.935 143.322 370.627 146.019 372.602C146.474 371.712 146.93 370.822 147.385 369.932C149.938 371.149 152.618 371.768 155.418 371.797C153.564 373.027 151.542 374.048 149.351 374.87C145.813 373.272 142.476 371.744 139.332 370.303C139.428 365.218 138.58 360.291 136.788 355.52C136.242 348.804 134.962 342.161 132.952 335.582C133.103 334.211 133.565 332.942 134.329 331.794C142.718 329.64 151.227 328.378 159.857 328.01C164.833 327.647 169.76 326.799 174.64 325.466C175.826 326.074 177.014 326.682 178.2 327.289C182.452 318.984 186.707 310.67 190.959 302.364C195.685 296.931 200.804 291.688 206.313 286.633C210.906 284.737 214.808 281.87 218.023 278.022C223.303 276.457 228.39 274.567 233.282 272.353C238.523 271.283 243.825 270.436 249.183 269.82C254.243 269.579 259.231 270.076 264.151 271.303Z" fill="#1A0907"/>
<path fill-rule="evenodd" clip-rule="evenodd" d="M223.479 221.275C223.901 221.413 224.121 221.716 224.142 222.176C222.693 222.311 221.347 222.745 220.104 223.48C219.934 224.549 220.3 225.298 221.201 225.726C216.148 232.25 212.799 239.523 211.156 247.546C214.728 247.88 218.307 248.207 221.88 248.541C223.459 242.666 225.748 237.097 228.746 231.835C230.288 231.265 231.327 231.797 231.862 233.43C230.06 243.213 226.247 252.125 220.428 260.156C220.253 259.055 220.115 257.861 220.015 256.574C217.234 258.667 214.975 261.251 213.233 264.336C212.294 264.698 211.397 264.621 210.552 264.087C214.042 261.347 216.609 257.796 218.256 253.427C211.768 251.724 208.017 254.297 207.002 261.147C207.394 261.954 207.534 262.779 207.426 263.611C206.333 264.478 205.741 264.175 205.645 262.699C205.829 259.154 206.308 255.658 207.086 252.203C205.376 253.148 203.585 253.354 201.714 252.823C201.285 253.727 200.539 254.087 199.467 253.92C196.178 253.427 192.903 252.874 189.644 252.262C188.672 252.528 187.774 252.821 186.952 253.131C186.062 252.675 185.172 252.219 184.282 251.764C183.521 253.25 182.764 254.728 182.003 256.215C178.799 256.203 175.516 256.399 172.159 256.792C169.966 254.221 169.399 251.302 170.452 248.055C167.232 244.093 167.563 240.521 171.448 237.331C171.232 230.626 169.801 224.276 167.156 218.283C167.459 216.607 168.072 215.045 168.989 213.604C171.338 215.301 173.798 215.616 176.359 214.569C182.382 217.123 183.459 221.236 179.597 226.898C180.005 230.455 180.866 233.894 182.183 237.209C186.529 238.636 190.913 239.948 195.339 241.135C199.361 238.734 203.042 235.933 206.376 232.742C201.717 230.75 197.72 227.951 194.38 224.354C186.236 223.241 183.739 218.975 186.898 211.538C186.645 215.486 187.832 216.093 190.459 213.36C189.406 211.473 189.272 209.54 190.067 207.542C190.809 208.743 191.841 209.653 193.172 210.255C191.64 212.56 190.724 215.08 190.416 217.832C194.621 217.726 198.637 218.658 202.465 220.629C200.159 224.785 201.329 226.889 205.984 226.924C207.392 226.825 208.733 227.129 210 227.856C210.527 229.171 211.559 230.081 213.105 230.569C214.652 225.07 218.109 221.975 223.479 221.275Z" fill="#14100F"/>
<path fill-rule="evenodd" clip-rule="evenodd" d="M286.65 304.163C284.529 302.786 282.829 300.983 281.558 298.748C274.991 295.219 268.842 291.138 263.113 286.499C257.375 285.831 251.875 284.139 246.614 281.423C249.119 281.447 251.73 281.469 254.44 281.497C263.053 285.153 271.362 289.406 279.364 294.255C282.32 297.274 284.75 300.573 286.65 304.163Z" fill="#D98640"/>
<path fill-rule="evenodd" clip-rule="evenodd" d="M200.451 244.314C199.211 247.937 196.816 248.958 193.266 247.377C192.104 247.703 191.352 248.441 191.009 249.592C191.899 250.047 192.79 250.503 193.68 250.958C189.412 250.234 185.853 248.042 183.008 244.373C180.388 243.705 178.588 244.66 177.615 247.229C176.029 246.597 174.623 245.686 173.392 244.505C172.811 242.714 173.422 241.521 175.214 240.945C182.203 242.377 189.195 244.08 196.186 246.063C197.469 245.012 198.892 244.426 200.451 244.314Z" fill="#C98F6C"/>
<path fill-rule="evenodd" clip-rule="evenodd" d="M302.344 299.84C303.703 301.67 305.028 303.472 306.318 305.244C303.595 304.39 302.27 302.588 302.344 299.84Z" fill="#793417"/>
<path fill-rule="evenodd" clip-rule="evenodd" d="M201.714 252.823C198.982 252.526 196.308 251.898 193.681 250.958C192.791 250.502 191.901 250.047 191.011 249.591C191.353 248.441 192.105 247.702 193.268 247.376C196.817 248.957 199.213 247.936 200.453 244.313C200.881 243.41 201.627 243.05 202.699 243.217C206.981 246.981 206.653 250.183 201.714 252.823Z" fill="#E08452"/>
<path fill-rule="evenodd" clip-rule="evenodd" d="M210.552 264.088C209.481 264.225 208.44 264.063 207.425 263.611C207.534 262.779 207.394 261.955 207.002 261.147C208.017 254.298 211.768 251.724 218.255 253.427C216.608 257.797 214.042 261.347 210.552 264.088Z" fill="#CA7C4F"/>
<path fill-rule="evenodd" clip-rule="evenodd" d="M302.344 299.84C302.27 302.589 303.595 304.39 306.318 305.245C307.504 305.852 307.793 306.752 307.187 307.936C306.058 306.921 304.878 305.935 303.636 304.996C300.03 303.666 298.901 304.774 300.251 308.318C299.771 308.937 299.169 309.382 298.449 309.643C300.253 311.779 300.903 314.168 300.394 316.817C296.093 308.706 291.022 301.055 285.182 293.864C278.092 287.55 270.089 282.701 261.168 279.325C256.034 277.798 250.977 276.704 245.993 276.051C247.644 275.02 249.437 274.444 251.377 274.313C254.651 274.978 257.855 275.304 260.983 275.299C277.649 278.572 291.436 286.753 302.344 299.84Z" fill="#DF590E"/>
<path fill-rule="evenodd" clip-rule="evenodd" d="M264.152 271.302C259.231 270.076 254.243 269.578 249.184 269.819C243.825 270.435 238.524 271.283 233.283 272.352C233.417 267.691 231.201 265.804 226.628 266.699C225.436 267.527 225.051 268.644 225.478 270.042C224.104 269.889 222.839 269.433 221.69 268.665C223.17 268.187 224.374 267.298 225.293 266.015C227.72 264.854 230.261 264.278 232.912 264.298C238.063 264.003 243.21 263.458 248.357 262.656C251.896 264.377 255.616 265.158 259.516 264.997C262.976 265.409 266.098 266.625 268.873 268.664C269.321 269.668 269.536 270.711 269.514 271.8C267.676 272.05 265.888 271.888 264.152 271.302Z" fill="#DE5810"/>
<path fill-rule="evenodd" clip-rule="evenodd" d="M308.828 276.198C325.804 288.123 336.985 303.956 342.369 323.698C343.339 330.677 343.425 337.461 342.624 344.049C339.115 354.184 334.699 363.91 329.378 373.218C330.867 370.048 331.195 366.846 330.363 363.612C330.669 363.015 330.969 362.428 331.275 361.831C333.641 356.291 334.889 350.561 335.015 344.648C335.501 342.606 335.073 340.881 333.722 339.493C332.239 336.993 331.97 334.226 332.906 331.211C329.32 313.12 321.047 297.461 308.081 284.241C304.375 281.973 300.671 279.695 296.965 277.427C295.548 275.264 294.451 273.017 293.674 270.688C298.921 271.183 303.969 273.025 308.828 276.198Z" fill="#E65A0E"/>
<path fill-rule="evenodd" clip-rule="evenodd" d="M282.537 266.11C280.172 267.123 277.777 268.145 275.353 269.173C275.848 270.685 275.831 272.181 275.31 273.645C273.703 271.26 273.131 268.721 273.593 266.025C276.562 266.557 279.547 266.579 282.537 266.11Z" fill="#A5581A"/>
<path fill-rule="evenodd" clip-rule="evenodd" d="M275.31 273.644C275.831 272.181 275.847 270.684 275.352 269.172C277.777 268.144 280.171 267.123 282.536 266.109C284.425 264.964 286.137 265.278 287.671 267.052C288.986 272.287 290.952 277.225 293.568 281.867C287.207 279.734 281.123 276.99 275.31 273.644Z" fill="#E6700C"/>
<path fill-rule="evenodd" clip-rule="evenodd" d="M259.827 255.609C261.561 257.519 261.547 259.376 259.774 261.198C257.744 261.619 256.408 260.936 255.769 259.148C257.13 259.609 258.545 259.771 260.013 259.635C259.209 258.303 259.144 256.967 259.827 255.609Z" fill="#853A19"/>
<path fill-rule="evenodd" clip-rule="evenodd" d="M220.427 260.157C226.246 252.126 230.059 243.214 231.861 233.431C231.326 231.798 230.287 231.266 228.745 231.836C225.747 237.098 223.459 242.667 221.879 248.542C218.306 248.207 214.728 247.881 211.155 247.546C212.799 239.524 216.147 232.251 221.2 225.727C226.973 223.818 231.802 225.357 235.692 230.336C239.716 236.665 242.407 243.479 243.772 250.762C243.605 252.552 242.849 254.03 241.494 255.213C236.254 256.159 230.959 256.628 225.604 256.628C224.038 257.837 223.055 259.39 222.653 261.296C221.204 261.981 220.462 261.601 220.427 260.157Z" fill="#ADA37B"/>
<path fill-rule="evenodd" clip-rule="evenodd" d="M308.828 276.198C303.969 273.025 298.921 271.183 293.675 270.688C291.946 269.567 292.027 268.676 293.924 268.007C299.504 269.942 304.47 272.675 308.828 276.198Z" fill="#7E2A0E"/>
<path fill-rule="evenodd" clip-rule="evenodd" d="M249.294 234.489C249.382 241.386 249.763 248.322 250.439 255.296C250.251 257.604 249.045 258.862 246.826 259.063C246.411 257.93 246.57 256.888 247.302 255.937C248.599 255.758 249.204 254.944 249.114 253.495C247.749 246.583 245.725 239.93 243.042 233.535C244.468 234.995 246.098 236.201 247.927 237.159C248.383 236.269 248.838 235.379 249.294 234.489Z" fill="#C9C6C6"/>
<path fill-rule="evenodd" clip-rule="evenodd" d="M200.854 201.831C200.336 202.554 200.332 203.293 200.833 204.067C204.003 206.285 206.513 209.064 208.357 212.412C211.413 212.763 214.105 211.894 216.431 209.804C215.517 212.684 214.299 215.431 212.776 218.044C215.299 218.369 217.377 219.433 219.007 221.233C216.018 223.119 213.907 225.779 212.67 229.224C211.78 228.768 210.89 228.312 209.999 227.857C208.733 227.129 207.391 226.825 205.983 226.924C205.762 225.8 205.027 225.042 203.768 224.667C205.067 222.838 205.311 220.896 204.494 218.86C201.6 213.514 198.069 208.707 193.897 204.448C194.344 204.306 194.796 204.156 195.243 204.014C194.316 203.068 194.1 202.025 194.601 200.877C196.692 200.554 198.778 200.869 200.854 201.831Z" fill="#ED8649"/>
<path fill-rule="evenodd" clip-rule="evenodd" d="M194.602 200.877C194.101 202.025 194.316 203.068 195.243 204.014C194.796 204.156 194.344 204.306 193.897 204.448C198.07 208.707 201.6 213.514 204.495 218.86C205.312 220.896 205.067 222.838 203.769 224.667C205.027 225.042 205.763 225.8 205.984 226.924C201.329 226.89 200.159 224.785 202.465 220.63C198.637 218.659 194.62 217.726 190.416 217.832C190.724 215.08 191.64 212.561 193.171 210.255C192.511 208.176 191.489 206.148 190.098 204.189C190.54 201.685 192.038 200.587 194.602 200.877Z" fill="#EFA27A"/>
<path fill-rule="evenodd" clip-rule="evenodd" d="M223.479 221.276C218.109 221.976 214.652 225.07 213.105 230.569C211.559 230.081 210.527 229.171 210 227.857C210.89 228.312 211.78 228.768 212.67 229.224C213.908 225.779 216.019 223.119 219.007 221.233C217.378 219.433 215.3 218.369 212.776 218.044C214.299 215.431 215.517 212.684 216.432 209.804C214.105 211.894 211.414 212.763 208.357 212.411C206.513 209.064 204.003 206.285 200.833 204.067C200.332 203.293 200.336 202.554 200.854 201.831C204.849 204.594 208.547 207.611 211.949 210.88C212.563 208.599 213.328 206.373 214.249 204.193C218.531 205.24 219.847 207.789 218.202 211.834C216.729 213.271 215.521 214.899 214.578 216.719C215.945 217.655 217.431 218.045 219.039 217.879C221.297 216.215 222.959 214.067 224.019 211.441C226.484 212.523 228.785 213.881 230.913 215.532C230.945 217.458 230.407 219.239 229.297 220.883C227.151 219.515 225.212 219.646 223.479 221.276Z" fill="#C9794D"/>
<path fill-rule="evenodd" clip-rule="evenodd" d="M152.043 161.118C153.389 161.818 154.122 162.946 154.247 164.493C156.135 195.611 159.421 226.501 164.105 257.163C164.574 259.628 164.108 261.636 162.706 263.188C158.235 230.287 154.375 197.227 151.121 164.016C151.124 162.95 151.432 161.985 152.043 161.118Z" fill="#864C23"/>
<path fill-rule="evenodd" clip-rule="evenodd" d="M259.827 255.609C259.144 256.967 259.209 258.303 260.013 259.636C258.545 259.771 257.13 259.609 255.769 259.148C254.591 256.411 254.021 253.501 254.062 250.411C254.63 237.839 254.301 225.313 253.076 212.834C254.468 191.888 254.663 171.025 253.668 150.227C254.017 145.609 254.655 141.071 255.586 136.604C257.406 137.402 258.584 138.757 259.125 140.663C258.763 179.01 258.997 217.325 259.827 255.609Z" fill="#D16715"/>
<path fill-rule="evenodd" clip-rule="evenodd" d="M146.744 153.912C148.228 154.672 149.711 155.431 151.195 156.19C148.494 157.808 147.011 157.048 146.744 153.912Z" fill="#855531"/>
<path fill-rule="evenodd" clip-rule="evenodd" d="M177.031 167.168C178.285 167.619 179.174 168.445 179.691 169.653C180.091 175.025 180.189 180.322 179.988 185.533C180.878 185.988 181.768 186.444 182.659 186.9C179.763 192.383 180.164 197.452 183.856 202.117C184.445 205.462 185.456 208.609 186.898 211.537C183.739 218.975 186.235 223.241 194.38 224.354C197.72 227.951 201.717 230.75 206.376 232.742C203.041 235.933 199.361 238.733 195.339 241.135C190.913 239.947 186.529 238.636 182.183 237.209C180.865 233.894 180.005 230.455 179.597 226.898C183.459 221.236 182.382 217.123 176.359 214.568C173.798 215.616 171.338 215.301 168.989 213.604C168.072 215.045 167.459 216.607 167.156 218.283C169.801 224.276 171.232 230.626 171.448 237.331C167.563 240.521 167.232 244.093 170.452 248.055C169.399 251.302 169.966 254.221 172.159 256.792C175.516 256.399 178.798 256.203 182.003 256.215C183.322 255.688 184.226 254.656 184.716 253.11C185.903 253.717 187.09 254.325 188.277 254.932C186.993 256.792 186.379 258.724 186.433 260.729C185.752 262.504 184.476 263.535 182.602 263.823C178.87 264.53 175.133 265.246 171.401 265.953C170.339 265.949 169.371 265.644 168.503 265.032C167.371 241.883 164.755 218.829 160.659 195.86C160.455 186.386 159.649 176.986 158.243 167.661C158.246 166.596 158.553 165.63 159.164 164.763C165.103 165.275 171.058 166.077 177.031 167.168Z" fill="#F3F3F2"/>
<path fill-rule="evenodd" clip-rule="evenodd" d="M284.889 206.65C285.11 217.537 284.338 228.556 282.563 239.724C282.039 240.017 281.514 240.31 280.99 240.603C281.673 229.146 282.974 217.826 284.889 206.65Z" fill="#704523"/>
<path fill-rule="evenodd" clip-rule="evenodd" d="M177.592 155.098C175.226 156.111 172.832 157.132 170.407 158.16C171.653 159.888 173.283 161.093 175.293 161.784C170.477 162.229 166.013 161.438 161.898 159.422C166.915 157.058 172.148 155.614 177.592 155.098Z" fill="#B55718"/>
<path fill-rule="evenodd" clip-rule="evenodd" d="M175.96 138.535C172.404 141.557 168.209 143.532 163.382 144.454C162.519 145.08 161.916 145.894 161.57 146.897C160.624 146.165 159.583 146.004 158.444 146.42C156.522 148.458 154.731 148.665 153.071 147.04C151.048 147.375 149.038 147.279 147.036 146.759C145.425 148.08 144.888 149.861 145.42 152.111C142.988 150.338 142.705 148.328 144.583 146.065C155.045 143.804 165.505 141.294 175.96 138.535Z" fill="#DD893C"/>
<path fill-rule="evenodd" clip-rule="evenodd" d="M243.041 233.535C245.724 239.93 247.749 246.584 249.114 253.495C249.203 254.944 248.598 255.759 247.302 255.937C246.411 255.482 245.521 255.026 244.631 254.57C243.744 256.026 242.467 257.057 240.8 257.665C240.728 258.695 241.021 259.586 241.669 260.356C239.682 259.698 239.003 260.294 239.64 262.126C238.158 262.412 236.821 262.099 235.624 261.194C237.129 258.325 236.098 257.415 232.519 258.481C233.155 260.424 233.284 262.367 232.911 264.299C230.26 264.278 227.719 264.854 225.292 266.016C219.771 266.559 214.25 267.104 208.729 267.648C207.17 266.277 205.467 265.214 203.616 264.469C203.778 266.585 202.802 267.029 200.696 265.783C201.152 264.893 201.607 264.003 202.063 263.113C198.913 260.804 195.649 259.133 192.271 258.1C191.51 259.587 190.754 261.065 189.993 262.551C188.957 261.65 187.924 260.74 186.888 259.838C187.799 258.058 188.711 256.278 189.622 254.497C188.732 254.042 187.842 253.586 186.952 253.131C187.774 252.821 188.672 252.528 189.643 252.261C192.902 252.874 196.177 253.427 199.467 253.92C200.538 254.086 201.284 253.727 201.713 252.823C203.585 253.354 205.376 253.147 207.086 252.203C206.307 255.657 205.829 259.153 205.645 262.699C205.74 264.175 206.333 264.478 207.425 263.61C208.44 264.062 209.48 264.224 210.551 264.087C211.397 264.621 212.293 264.698 213.232 264.336C214.974 261.251 217.233 258.666 220.014 256.574C220.115 257.861 220.252 259.055 220.428 260.156C220.462 261.6 221.205 261.98 222.653 261.295C223.056 259.389 224.038 257.836 225.604 256.627C230.959 256.627 236.255 256.158 241.494 255.211C242.849 254.029 243.605 252.551 243.773 250.761C242.407 243.478 239.716 236.664 235.692 230.335C231.802 225.356 226.973 223.817 221.2 225.726C220.299 225.298 219.933 224.549 220.104 223.479C221.347 222.745 222.692 222.311 224.141 222.176C224.12 221.716 223.9 221.412 223.479 221.275C225.211 219.646 227.15 219.515 229.296 220.883C230.407 219.238 230.944 217.457 230.912 215.531C228.785 213.881 226.484 212.523 224.019 211.441C222.958 214.066 221.297 216.215 219.038 217.879C217.43 218.044 215.945 217.655 214.577 216.719C215.521 214.899 216.729 213.27 218.201 211.833C219.847 207.789 218.531 205.239 214.248 204.193C213.328 206.373 212.563 208.599 211.949 210.88C208.547 207.61 204.848 204.594 200.854 201.83C201.065 199.871 200.107 198.819 197.976 198.672C193.742 198.527 190.519 200.068 188.317 203.277C188.691 204.827 189.274 206.249 190.066 207.542C189.272 209.54 189.405 211.473 190.458 213.36C187.831 216.093 186.645 215.486 186.898 211.537C185.456 208.609 184.444 205.462 183.856 202.117C180.164 197.452 179.763 192.382 182.658 186.899C181.768 186.444 180.878 185.988 179.988 185.532C180.188 180.321 180.091 175.025 179.691 169.653C179.173 168.444 178.285 167.619 177.031 167.168C177.845 165.282 179.199 164.099 181.089 163.628C183.436 164.392 185.745 164.27 188.025 163.247C189.474 163.157 190.287 163.764 190.468 165.059C189.697 167.439 189.824 169.751 190.849 171.994C197.881 168.988 205.274 167.346 213.034 167.061C216.941 167.657 220.732 168.665 224.41 170.076C228.78 174.121 233.439 177.82 238.393 181.165C246.85 193.279 247.405 205.73 240.052 218.525C238.77 218.812 237.58 218.574 236.481 217.82C235.552 219.322 235.088 220.96 235.093 222.727C237.772 226.367 240.422 229.97 243.041 233.535Z" fill="#090607"/>
<path fill-rule="evenodd" clip-rule="evenodd" d="M200.854 201.83C198.778 200.869 196.693 200.554 194.602 200.877C192.039 200.587 190.541 201.685 190.098 204.189C191.49 206.148 192.512 208.176 193.172 210.255C191.841 209.653 190.809 208.743 190.067 207.543C189.275 206.25 188.692 204.828 188.318 203.277C190.52 200.068 193.743 198.528 197.977 198.673C200.107 198.819 201.066 199.872 200.854 201.83Z" fill="#A66F5A"/>
<path fill-rule="evenodd" clip-rule="evenodd" d="M184.195 166.341C185.122 166.714 185.709 167.397 185.964 168.37C185.796 170.34 185.926 172.282 186.357 174.188C186.712 176.099 186.247 177.738 184.969 179.094C184.46 174.846 184.204 170.592 184.195 166.341Z" fill="#664734"/>
<path fill-rule="evenodd" clip-rule="evenodd" d="M181.089 163.629C179.159 163.012 177.223 162.403 175.293 161.785C173.283 161.094 171.653 159.889 170.407 158.161C172.832 157.133 175.226 156.112 177.592 155.099C200.02 149.481 222.659 144.027 245.503 138.746C247.606 138.25 249.167 138.858 250.181 140.579C250.594 144.599 250.108 148.473 248.73 152.193C225.944 153.932 203.396 157.747 181.089 163.629Z" fill="#E55B0C"/>
<path fill-rule="evenodd" clip-rule="evenodd" d="M210.369 141.544C206.966 144.374 203.078 145.384 198.712 144.564C199.091 143.635 199.767 143.048 200.742 142.795C203.855 143.894 206.172 143.024 207.698 140.177C208.589 140.633 209.479 141.088 210.369 141.544Z" fill="#A85A1D"/>
<path fill-rule="evenodd" clip-rule="evenodd" d="M249.294 234.489C248.838 235.379 248.382 236.269 247.927 237.159C246.098 236.201 244.468 234.996 243.041 233.535C240.422 229.97 237.773 226.367 235.093 222.727C235.088 220.961 235.552 219.322 236.481 217.82C237.581 218.574 238.77 218.812 240.053 218.525C247.405 205.73 246.85 193.279 238.393 181.165C233.439 177.82 228.78 174.121 224.41 170.076C220.732 168.665 216.941 167.657 213.034 167.061C205.274 167.346 197.881 168.988 190.85 171.995C189.824 169.751 189.698 167.439 190.468 165.059C209.814 161.784 229.219 158.989 248.688 156.665C249.131 157.262 249.569 157.868 250.012 158.466C249.773 183.822 249.533 209.167 249.294 234.489Z" fill="#F1F1F0"/>
<path fill-rule="evenodd" clip-rule="evenodd" d="M254.366 123.623C252.527 124.063 250.587 124.194 248.548 124.015C246.881 125.285 245.157 126.458 243.372 127.544C232.963 128.193 222.88 130.333 213.123 133.967C211.613 130.509 209.454 130.336 206.643 133.458C205.602 133.296 204.557 133.143 203.517 132.981C203.131 134.469 202.521 135.662 201.694 136.542C199.747 137.421 197.803 138.291 195.855 139.17C194.711 139.247 194.268 138.65 194.531 137.369C195.774 136.634 197.119 136.2 198.568 136.065C197.921 135.318 197.407 134.493 197.026 133.591C195.117 134.333 193.318 135.287 191.632 136.447C191.756 137.88 192.19 139.226 192.936 140.484C189.576 139.876 186.457 138.651 183.579 136.818C181.712 139.671 179.175 140.237 175.959 138.535C200.369 131.28 224.959 124.208 249.73 117.318C253.625 117.84 255.173 119.935 254.366 123.623Z" fill="#E68B38"/>
<path fill-rule="evenodd" clip-rule="evenodd" d="M254.367 123.623C256.871 127.106 256.69 130.384 253.827 133.457C242.658 134.705 231.682 137.13 220.886 140.748C217.437 141.611 213.933 141.874 210.369 141.543C209.478 141.088 208.588 140.632 207.698 140.176C206.172 143.024 203.854 143.893 200.741 142.794C199.766 143.048 199.091 143.634 198.712 144.564C182.819 148.707 166.979 152.586 151.195 156.19C149.711 155.43 148.228 154.671 146.744 153.912C145.784 153.611 145.341 153.014 145.42 152.11C144.887 149.86 145.425 148.08 147.036 146.759C149.038 147.278 151.048 147.374 153.071 147.039C154.731 148.664 156.522 148.457 158.443 146.419C159.583 146.003 160.624 146.165 161.569 146.896C161.915 145.893 162.519 145.079 163.381 144.453C168.209 143.532 172.404 141.556 175.96 138.535C179.176 140.237 181.712 139.67 183.579 136.818C186.458 138.651 189.576 139.876 192.936 140.484C192.191 139.226 191.756 137.88 191.633 136.447C193.318 135.287 195.118 134.332 197.027 133.591C197.407 134.493 197.922 135.318 198.569 136.065C197.12 136.2 195.774 136.634 194.531 137.368C194.269 138.65 194.712 139.247 195.856 139.17C197.803 138.291 199.747 137.421 201.695 136.542C202.521 135.662 203.132 134.469 203.517 132.981C204.558 133.143 205.603 133.296 206.643 133.458C209.455 130.336 211.613 130.508 213.124 133.966C222.881 130.333 232.964 128.192 243.373 127.544C245.157 126.458 246.881 125.285 248.549 124.015C250.588 124.193 252.527 124.063 254.367 123.623Z" fill="#EF7610"/>
<path fill-rule="evenodd" clip-rule="evenodd" d="M281.857 148.928C282.747 149.384 283.637 149.839 284.527 150.295C281.649 186.084 278.479 221.905 275.014 257.765C274.711 259.441 274.098 261.003 273.181 262.443C271.045 261.597 268.811 261.206 266.483 261.262C265.86 260.785 265.421 260.179 265.159 259.46C264.147 224.634 263.434 189.815 263.015 155.011C263.916 154.349 264.817 153.686 265.718 153.024C271.27 151.844 276.652 150.476 281.857 148.928Z" fill="#EDE4D7"/>
<path fill-rule="evenodd" clip-rule="evenodd" d="M284.888 206.649C285.221 186.89 286.748 167.08 289.475 147.21C290.73 147.661 291.618 148.487 292.135 149.695C290.176 163.218 288.859 176.766 288.173 190.356C287.595 195.902 286.497 201.339 284.888 206.649Z" fill="#96531F"/>
<path fill-rule="evenodd" clip-rule="evenodd" d="M282.374 141.33C283.265 141.786 284.155 142.241 285.045 142.697C283.374 144.504 281.276 145.677 278.75 146.215C273.591 145.787 268.663 146.635 263.968 148.759C263.7 145.623 263.429 142.496 263.162 139.36C263.764 138.915 264.362 138.48 264.963 138.035C271.04 138.37 276.845 139.466 282.374 141.33Z" fill="#DB6D13"/>
<path fill-rule="evenodd" clip-rule="evenodd" d="M270.474 122.881C267.33 122.024 264.062 121.093 260.662 120.105C261.697 122.904 263.538 125.161 266.188 126.866C265.125 126.861 264.158 126.557 263.29 125.944C262.005 127.679 262.136 129.251 263.693 130.643C271.052 131.265 278.037 133.346 284.654 136.879C277.585 135.654 270.443 134.245 263.226 132.652C259.94 127.857 258.498 122.626 258.902 116.958C262.759 118.932 266.617 120.907 270.474 122.881Z" fill="#CF6615"/>
<path fill-rule="evenodd" clip-rule="evenodd" d="M273.599 123.358C279.831 126.547 286.062 129.737 292.293 132.926C291.364 135.473 289.71 137.243 287.323 138.246C286.433 137.79 285.543 137.335 284.652 136.879C278.035 133.346 271.051 131.265 263.691 130.643C262.135 129.251 262.004 127.679 263.289 125.943C264.157 126.556 265.124 126.861 266.187 126.865C263.537 125.16 261.696 122.904 260.66 120.105C264.061 121.092 267.329 122.024 270.473 122.881C271.513 123.683 272.558 123.836 273.599 123.358Z" fill="#F65D06"/>
<path fill-rule="evenodd" clip-rule="evenodd" d="M273.6 123.358C280.414 125.733 287.092 128.781 293.639 132.492C292.423 134.868 291.21 137.236 289.994 139.613C289.104 139.157 288.214 138.702 287.323 138.246C289.71 137.243 291.365 135.473 292.293 132.926C286.062 129.737 279.831 126.547 273.6 123.358Z" fill="#A74A17"/>
<path fill-rule="evenodd" clip-rule="evenodd" d="M192.271 258.101C193.749 260.531 193.43 262.614 191.318 264.353C190.874 263.721 190.435 263.115 189.993 262.551C190.754 261.065 191.511 259.587 192.271 258.101Z" fill="#B8C2C8"/>
<path fill-rule="evenodd" clip-rule="evenodd" d="M299.938 317.706C302.395 319.671 304.61 321.928 306.583 324.477C306.128 324.907 305.603 325.2 305.009 325.357C305.741 328.765 306.232 332.195 306.477 335.657C304.624 329.474 302.447 323.484 299.938 317.706Z" fill="#BF4C0E"/>
<path fill-rule="evenodd" clip-rule="evenodd" d="M293.686 316.753C294.787 318.585 296.262 320.093 298.116 321.267C299.408 326.444 300.997 331.751 302.885 337.189C302.097 339.717 302.826 341.584 305.068 342.8C304.537 345.774 304.512 348.75 304.984 351.744C305.19 355.006 303.754 357.08 300.676 357.964C302.414 359.876 303.511 362.123 303.967 364.704C302.706 368.26 302.375 371.832 302.971 375.428C301.334 376.803 300.274 378.507 299.792 380.541C300.309 381.75 301.198 382.575 302.452 383.026C300.573 387.019 299.194 391.177 298.309 395.509C295.522 399.329 292.805 403.174 290.149 407.06C289.844 407.657 289.543 408.244 289.238 408.841C287.136 408.518 285.12 408.8 283.192 409.678C280.347 412.041 277.862 414.701 275.738 417.658C275.441 417.506 275.144 417.354 274.847 417.202C271.696 417.982 268.996 419.599 266.751 422.045C261.057 422.905 255.454 424.339 249.939 426.358C248.173 425.679 246.462 425.365 244.805 425.415C242.715 424.121 240.488 423.352 238.118 423.116C234.643 418.382 230.359 414.314 225.264 410.919C224.313 409.118 223.359 407.326 222.408 405.525C217.104 403.215 214.083 399.242 213.352 393.588C211.769 387.621 210.784 381.5 210.395 375.224C212.87 363.594 217.298 352.75 223.673 342.701C235.817 326.809 251.486 317.046 270.686 313.405C274.487 311.924 278.369 310.923 282.342 310.384C284.615 311.446 286.927 311.686 289.267 311.12C290.458 313.258 291.932 315.135 293.686 316.753Z" fill="#F57403"/>
<path fill-rule="evenodd" clip-rule="evenodd" d="M307.187 307.935C307.483 308.087 307.781 308.239 308.077 308.391C307.813 310.581 308.243 312.666 309.359 314.664C308.905 315.094 308.379 315.387 307.786 315.544C310.63 318.966 313.357 322.417 315.962 325.908C317.307 326.608 318.041 327.736 318.166 329.283C319.31 334.362 320.455 339.442 321.6 344.521C321.143 346.5 320.38 348.357 319.311 350.09C320.201 350.546 321.091 351.001 321.981 351.457C321.217 352.605 320.755 353.874 320.604 355.245C321.787 362.513 320.978 369.581 318.167 376.466C315.276 382.479 312.089 388.341 308.609 394.041C308.162 394.183 307.71 394.334 307.263 394.476C307.446 391.323 307.327 388.263 306.903 385.304C308.824 378.109 309.936 370.815 310.24 363.421C311.179 359.61 311.511 355.669 311.247 351.579C310.991 350.606 310.404 349.924 309.477 349.55C308.773 344.865 307.775 340.231 306.478 335.657C306.232 332.195 305.741 328.765 305.01 325.357C305.603 325.2 306.128 324.907 306.583 324.477C304.61 321.928 302.395 319.671 299.939 317.706C300.089 317.412 300.244 317.11 300.394 316.816C300.903 314.167 300.253 311.778 298.45 309.642C299.17 309.381 299.771 308.936 300.251 308.317C298.902 304.773 300.03 303.666 303.637 304.995C304.878 305.934 306.059 306.92 307.187 307.935Z" fill="#F15C08"/>
<path fill-rule="evenodd" clip-rule="evenodd" d="M225.292 266.016C224.374 267.298 223.17 268.187 221.689 268.665C221.095 268.361 220.649 268.503 220.343 269.1C219.272 269.237 218.232 269.075 217.217 268.623C213.241 269.519 209.135 270.226 204.898 270.742C205.342 271.34 205.78 271.946 206.223 272.544C202.456 270.998 198.59 269.771 194.63 268.856C196.92 270.804 197.273 273.04 195.684 275.575C193.622 274.137 192.149 272.26 191.265 269.943C188.434 268.516 187.087 269.32 187.217 272.364C184.831 272.053 182.526 271.434 180.303 270.51C176.146 271.494 172.039 272.2 167.984 272.63C169.186 271.526 170.462 270.494 171.814 269.535C176.801 269.729 181.651 269.032 186.369 267.437C193.927 267.755 201.384 267.82 208.729 267.648C214.25 267.104 219.771 266.56 225.292 266.016Z" fill="#D4863B"/>
<path fill-rule="evenodd" clip-rule="evenodd" d="M233.283 272.352C228.391 274.566 223.304 276.456 218.023 278.022C216.668 277.34 215.324 277.404 213.996 278.208C210.984 281.654 207.381 284.303 203.188 286.156C200.978 290.226 197.962 293.558 194.149 296.133C194.13 294.539 193.993 292.975 193.746 291.433C189.894 299.539 185.941 307.626 181.888 315.695C178.455 314.14 175.763 315.009 173.813 318.302C175.05 319.025 176.388 319.339 177.83 319.235C177.821 319.983 177.817 320.723 177.809 321.471C175.682 322.652 173.438 323.379 171.08 323.643C170.769 322.822 170.48 321.921 170.211 320.952C173.72 311.537 178.129 302.559 183.435 294.019C187.63 290.404 191.542 286.418 195.176 282.055C201.222 282.06 206.31 279.8 210.446 275.267C211.586 274.851 212.627 275.013 213.572 275.744C214.294 274.507 214.604 273.171 214.505 271.728C216.778 271.465 218.721 270.594 220.344 269.099C220.649 268.503 221.096 268.361 221.69 268.665C222.839 269.433 224.104 269.889 225.478 270.042C225.051 268.644 225.436 267.527 226.628 266.699C231.201 265.804 233.417 267.692 233.283 272.352Z" fill="#F75C03"/>
<path fill-rule="evenodd" clip-rule="evenodd" d="M95.2015 212.906C98.5674 213.944 99.7418 216.039 98.7199 219.201C100.015 219.684 101.125 220.443 102.053 221.469C105.819 228.946 108.803 236.652 111.002 244.586C110.851 245.957 110.389 247.226 109.625 248.374C108.62 248.028 107.807 247.421 107.182 246.562C104.122 238.233 100.845 230.006 97.3529 221.871C94.2617 218.177 90.7617 217.7 86.8566 220.43C84.4135 219.517 84.2042 218.095 86.226 216.176C89.3398 215.298 92.335 214.203 95.2015 212.906Z" fill="#C36618"/>
<path fill-rule="evenodd" clip-rule="evenodd" d="M368.417 359.5C373.94 361.821 374.949 365.337 371.448 370.038C364.786 371.683 362.501 369.199 364.587 362.594C365.633 361.119 366.909 360.087 368.417 359.5Z" fill="#939393"/>
<path fill-rule="evenodd" clip-rule="evenodd" d="M355.065 352.664C361.32 356.473 361.208 360.347 354.732 364.289C350.367 362.673 349.278 359.678 351.463 355.314C352.466 354.018 353.67 353.13 355.065 352.664Z" fill="#8C8C8D"/>
<path fill-rule="evenodd" clip-rule="evenodd" d="M397.359 373.19C392.19 374.611 386.961 376.046 381.665 377.514C380.296 378.15 379.393 379.182 378.952 380.619C378.062 380.163 377.172 379.707 376.281 379.252C382.755 375.432 389.781 373.411 397.359 373.19Z" fill="#7A090C"/>
<path fill-rule="evenodd" clip-rule="evenodd" d="M333.723 339.492C335.074 340.88 335.502 342.605 335.016 344.648C334.89 350.56 333.642 356.29 331.275 361.831C331.675 354.317 332.49 346.871 333.723 339.492Z" fill="#BF5315"/>
<path fill-rule="evenodd" clip-rule="evenodd" d="M214.357 287.38C213.872 288.671 213.113 289.788 212.089 290.713C209.01 292.62 206.011 294.455 203.092 296.219C206.121 292.197 209.875 289.254 214.357 287.38Z" fill="#97632E"/>
<path fill-rule="evenodd" clip-rule="evenodd" d="M217.217 268.622C211.604 272.557 205.754 276.303 199.669 279.861C192.712 280.176 186.063 281.828 179.72 284.815C174.113 284.9 168.739 285.89 163.591 287.794C162.529 287.789 161.561 287.485 160.693 286.872C158.677 288.907 156.133 289.852 153.063 289.707C152.2 290.332 151.597 291.147 151.251 292.149C150.946 292.746 150.645 293.333 150.34 293.93C143.343 296.684 136.167 298.999 128.807 300.882C130.503 297.897 129.616 297.072 126.147 298.397C125.654 296.763 124.617 296.232 123.031 296.802C113.678 298.957 104.561 301.772 95.6702 305.264C93.4988 306.085 91.8459 307.486 90.7109 309.466C88.1865 308.545 85.6584 307.633 83.134 306.711C80.9915 310.142 78.4503 310.717 75.5148 308.428C75.852 310.701 74.7963 311.666 72.357 311.305C71.8546 314.677 69.8965 316.674 66.4864 317.287C65.7228 315.268 65.6665 313.183 66.322 311.025C68.531 309.448 70.5603 307.678 72.4098 305.715C83.0627 300.912 94.1282 297.218 105.61 294.625C111.223 291.095 117.064 288.097 123.137 285.622C124.334 286.527 125.671 286.841 127.153 286.555C131.986 284.602 136.337 281.954 140.198 278.628C148.582 272.449 157.845 270.45 167.983 272.629C172.038 272.2 176.145 271.493 180.302 270.51C182.525 271.434 184.831 272.052 187.217 272.364C187.086 269.32 188.434 268.516 191.265 269.942C192.148 272.259 193.622 274.137 195.684 275.574C197.272 273.04 196.92 270.803 194.629 268.856C198.59 269.771 202.455 270.997 206.223 272.543C205.779 271.946 205.341 271.34 204.898 270.742C209.135 270.226 213.241 269.519 217.217 268.622Z" fill="#F99234"/>
<path fill-rule="evenodd" clip-rule="evenodd" d="M309.477 349.55C310.405 349.923 310.991 350.606 311.247 351.579C311.511 355.669 311.179 359.61 310.24 363.421C309.979 358.873 309.725 354.249 309.477 349.55Z" fill="#9E420D"/>
<path fill-rule="evenodd" clip-rule="evenodd" d="M342.624 344.049C340.803 355.418 336.679 366.035 330.248 375.909C328.906 377.907 327.715 378.039 326.666 376.323C327.69 372.016 328.926 367.773 330.364 363.611C331.196 366.846 330.867 370.048 329.379 373.218C334.699 363.91 339.116 354.184 342.624 344.049Z" fill="#B44E14"/>
<path fill-rule="evenodd" clip-rule="evenodd" d="M52.5488 230.393C55.6229 231.641 57.6891 233.822 58.7482 236.937C56.8333 242.506 53.4688 243.592 48.6547 240.196C48.0434 236.254 49.3418 232.987 52.5488 230.393Z" fill="#909090"/>
<path fill-rule="evenodd" clip-rule="evenodd" d="M111.841 250.632C112.846 250.978 113.658 251.585 114.283 252.444C117.554 259.791 120.692 267.194 123.689 274.671C123.757 276.402 123.815 278.117 123.864 279.816C119.989 282.101 115.872 283.926 111.513 285.289C109.204 278.142 106.885 270.968 104.561 263.757C104.147 260.646 104.028 257.586 104.2 254.585C105.091 255.04 105.981 255.496 106.871 255.952C107.952 253.607 109.608 251.837 111.841 250.632Z" fill="#EA852D"/>
<path fill-rule="evenodd" clip-rule="evenodd" d="M250.101 338.255C256.243 339.646 261.283 342.968 265.212 348.237C263.283 354.765 260.244 360.702 256.099 366.04C254.953 365.701 254.214 364.951 253.885 363.783C255.793 362.03 257.525 360.108 259.082 358.018C258.686 355.232 258.265 352.399 257.821 349.509C253.833 347.299 250.353 344.585 247.388 341.36C247.844 340.47 248.299 339.58 248.755 338.69C251.074 340.056 253.521 341.129 256.104 341.89C254.276 340.392 252.272 339.187 250.101 338.255Z" fill="#F75F03"/>
<path fill-rule="evenodd" clip-rule="evenodd" d="M140.199 278.628C136.337 281.954 131.986 284.602 127.154 286.555C125.672 286.841 124.335 286.527 123.138 285.622C124.474 284.801 125.968 284.443 127.62 284.547C131.111 281.065 135.301 279.098 140.199 278.628Z" fill="#C78240"/>
<path fill-rule="evenodd" clip-rule="evenodd" d="M201.725 298.889C194.909 307.129 189.161 316.162 184.473 326.007C187.008 318.52 190.504 311.322 194.964 304.416C196.695 301.741 198.946 299.904 201.725 298.889Z" fill="#AF6E37"/>
<path fill-rule="evenodd" clip-rule="evenodd" d="M247.59 367.301C244.65 365.617 241.533 364.392 238.232 363.635C231.763 357.155 231.973 350.893 238.857 344.857C246.241 343.064 251.582 345.798 254.88 353.059C254.888 355.703 254.343 358.232 253.243 360.646C251.461 362.969 249.578 365.185 247.59 367.301Z" fill="#150506"/>
<path fill-rule="evenodd" clip-rule="evenodd" d="M190.959 302.365C186.708 310.67 182.452 318.984 178.201 327.289C177.014 326.682 175.827 326.074 174.64 325.466C175.681 324.988 176.727 325.141 177.766 325.943C181.658 317.623 186.056 309.763 190.959 302.365Z" fill="#6C2506"/>
<path fill-rule="evenodd" clip-rule="evenodd" d="M151.252 292.15C156.304 293.984 157.315 297.13 154.293 301.571C150.731 300.185 150.127 300.999 152.481 304.013C159.307 303.519 160.624 305.699 156.445 310.536C157.051 309.352 157.661 308.159 158.267 306.975C157.118 306.207 155.853 305.75 154.479 305.598C148.7 306.717 143.02 308.304 137.439 310.356C136.376 310.351 135.409 310.047 134.541 309.434C135.305 308.286 135.766 307.017 135.918 305.646C133.733 306.729 131.491 307.087 129.2 306.7C137.004 303.809 144.931 301.126 152.979 298.651C153.842 298.026 154.445 297.211 154.791 296.209C153.307 295.449 151.824 294.69 150.34 293.93C150.646 293.334 150.946 292.746 151.252 292.15Z" fill="#D06A16"/>
<path fill-rule="evenodd" clip-rule="evenodd" d="M218.023 278.022C214.807 281.87 210.905 284.737 206.313 286.633C200.804 291.688 195.685 296.931 190.958 302.364C186.056 309.763 181.658 317.622 177.766 325.943C176.726 325.141 175.681 324.988 174.64 325.466C169.76 326.799 164.833 327.647 159.857 328.01C162.45 326.731 164.261 324.658 165.282 321.8C167.14 323.076 169.07 323.694 171.079 323.644C173.438 323.379 175.681 322.652 177.808 321.471C177.817 320.723 177.82 319.983 177.829 319.235C176.387 319.34 175.049 319.026 173.813 318.303C175.763 315.009 178.454 314.14 181.888 315.696C185.941 307.626 189.894 299.539 193.745 291.434C193.993 292.976 194.129 294.54 194.148 296.133C197.961 293.558 200.978 290.226 203.187 286.156C207.381 284.303 210.984 281.654 213.996 278.208C215.324 277.405 216.668 277.34 218.023 278.022Z" fill="#DE5D12"/>
<path fill-rule="evenodd" clip-rule="evenodd" d="M250.102 338.256C252.273 339.187 254.277 340.393 256.105 341.89C253.522 341.13 251.075 340.057 248.756 338.69C248.301 339.581 247.845 340.471 247.389 341.361C250.354 344.586 253.834 347.3 257.822 349.51C258.266 352.399 258.688 355.233 259.083 358.019C257.526 360.109 255.794 362.031 253.886 363.784C254.215 364.952 254.954 365.701 256.101 366.041C254.869 366.321 253.672 366.831 252.508 367.572C252.517 366.824 252.521 366.085 252.529 365.336C250.96 366.319 249.312 366.981 247.591 367.302C249.58 365.186 251.462 362.97 253.245 360.647C254.344 358.233 254.89 355.704 254.882 353.06C251.583 345.799 246.243 343.066 238.859 344.858C239.491 343.272 240.4 341.861 241.582 340.635C244.429 339.587 247.27 338.794 250.102 338.256Z" fill="#DE590E"/>
<path fill-rule="evenodd" clip-rule="evenodd" d="M304.984 351.744C307.705 370.886 303.812 388.733 293.297 405.301C292.723 406.895 291.673 407.481 290.149 407.06C292.805 403.174 295.522 399.329 298.309 395.51C299.194 391.177 300.573 387.019 302.452 383.026C301.198 382.575 300.309 381.75 299.792 380.541C300.274 378.507 301.334 376.803 302.971 375.428C302.375 371.832 302.706 368.26 303.967 364.704C303.511 362.123 302.414 359.876 300.676 357.964C303.755 357.08 305.19 355.006 304.984 351.744Z" fill="#C56414"/>
<path fill-rule="evenodd" clip-rule="evenodd" d="M220.343 269.1C218.721 270.595 216.778 271.465 214.504 271.728C214.603 273.172 214.294 274.507 213.572 275.744C212.626 275.013 211.585 274.851 210.445 275.268C206.31 279.801 201.221 282.061 195.175 282.055C191.541 286.419 187.629 290.404 183.434 294.02C178.128 302.56 173.719 311.537 170.21 320.952C170.48 321.922 170.768 322.822 171.079 323.644C169.07 323.694 167.14 323.077 165.282 321.8C164.261 324.659 162.45 326.731 159.857 328.01C151.227 328.378 142.718 329.64 134.329 331.794C131.615 332.202 130.408 333.831 130.705 336.679C129.522 335.31 129.539 333.813 130.747 332.207C126.564 328.359 122.655 324.291 119.01 320.021C111.619 315.339 103.749 311.692 95.4105 309.064C93.1203 310.431 90.8069 310.561 88.4748 309.446C88.0192 310.336 87.5635 311.226 87.1079 312.116C85.1594 312.051 83.3659 312.628 81.7246 313.854C79.6347 314.279 77.5411 314.712 75.4512 315.137C72.721 317.154 70.6054 319.824 69.1144 323.127C67.6305 322.368 66.1475 321.608 64.6636 320.849C64.814 320.555 64.9689 320.252 65.1193 319.959C65.5749 319.069 66.0306 318.178 66.4862 317.288C69.8964 316.675 71.8545 314.677 72.3568 311.306C74.7962 311.667 75.8518 310.702 75.5147 308.429C78.4501 310.718 80.9914 310.143 83.1339 306.712C85.6583 307.633 88.1864 308.546 90.7108 309.467C91.8458 307.487 93.4986 306.086 95.6701 305.265C104.561 301.773 113.678 298.958 123.031 296.803C124.616 296.232 125.654 296.764 126.147 298.398C129.616 297.073 130.503 297.898 128.807 300.883C128.046 302.369 127.289 303.847 126.529 305.333C127.419 305.789 128.309 306.245 129.199 306.7C131.491 307.087 133.733 306.729 135.918 305.646C135.766 307.017 135.304 308.286 134.54 309.434C133.938 309.879 133.34 310.314 132.739 310.759C130.567 310.961 128.935 310.126 127.843 308.253C126.653 307.767 125.606 307.984 124.706 308.894C125.258 312.03 126.424 314.874 128.203 317.424C130.025 317.481 131.74 317.055 133.359 316.131C134.999 316.095 136.108 316.854 136.691 318.399C133.987 319.621 132.629 321.544 132.612 324.175C134.694 325.117 136.853 325.289 139.092 324.683C144.06 322.946 149.138 321.804 154.33 321.249C155.733 320.44 156.714 319.257 157.271 317.699C153.113 317.391 148.939 317.501 144.745 318.028C143.74 317.682 142.928 317.075 142.302 316.216C145.986 313.664 149.954 311.763 154.208 310.515C154.895 309.923 155.638 309.932 156.444 310.536C160.624 305.699 159.306 303.519 152.481 304.013C150.126 301 150.731 300.185 154.293 301.571C157.315 297.13 156.304 293.984 151.251 292.15C151.597 291.147 152.2 290.333 153.063 289.707C156.133 289.852 158.677 288.908 160.693 286.873C161.561 287.485 162.529 287.79 163.591 287.794C168.739 285.891 174.113 284.901 179.72 284.816C186.063 281.828 192.712 280.176 199.668 279.862C205.754 276.304 211.603 272.558 217.217 268.623C218.231 269.075 219.272 269.237 220.343 269.1Z" fill="#F47408"/>
<path fill-rule="evenodd" clip-rule="evenodd" d="M150.34 293.93C151.824 294.69 153.307 295.449 154.791 296.208C154.445 297.211 153.842 298.025 152.979 298.651C144.931 301.126 137.004 303.809 129.199 306.7C128.309 306.244 127.419 305.789 126.529 305.333C127.29 303.846 128.046 302.369 128.807 300.882C136.168 298.999 143.344 296.685 150.34 293.93Z" fill="#1F0C07"/>
<path fill-rule="evenodd" clip-rule="evenodd" d="M240.14 351.131C244.058 353.293 244.772 356.288 242.291 360.096C237.672 358.158 236.957 355.164 240.14 351.131Z" fill="#D05A16"/>
<path fill-rule="evenodd" clip-rule="evenodd" d="M318.166 376.466C315.234 386.076 310.161 394.522 302.944 401.815C302.176 402.578 301.354 402.72 300.48 402.239C303.566 396.92 305.706 391.275 306.902 385.304C307.326 388.263 307.445 391.323 307.262 394.476C307.709 394.334 308.161 394.184 308.608 394.042C312.088 388.341 315.275 382.479 318.166 376.466Z" fill="#A44416"/>
<path fill-rule="evenodd" clip-rule="evenodd" d="M156.445 310.535C155.64 309.932 154.897 309.922 154.209 310.514C146.762 312.297 139.22 313.862 131.58 315.22C130.205 315.067 128.94 314.61 127.791 313.842C128.972 312.02 130.623 310.989 132.74 310.759C133.342 310.314 133.94 309.879 134.541 309.434C135.409 310.047 136.377 310.351 137.44 310.356C143.021 308.303 148.7 306.717 154.479 305.597C155.854 305.75 157.119 306.207 158.268 306.975C157.662 308.159 157.051 309.352 156.445 310.535Z" fill="#190708"/>
<path fill-rule="evenodd" clip-rule="evenodd" d="M154.208 310.514C149.954 311.763 145.986 313.664 142.303 316.216C142.928 317.075 143.74 317.682 144.745 318.028C141.392 319.48 137.95 320.717 134.424 321.732C133.561 322.357 132.958 323.172 132.612 324.175C132.629 321.544 133.988 319.621 136.691 318.399C136.109 316.854 134.999 316.095 133.359 316.131C131.74 317.055 130.025 317.48 128.203 317.424C126.424 314.873 125.258 312.03 124.706 308.894C125.606 307.984 126.653 307.767 127.843 308.253C128.935 310.126 130.567 310.961 132.739 310.759C130.622 310.99 128.971 312.021 127.79 313.843C128.939 314.611 130.204 315.067 131.578 315.22C139.219 313.863 146.761 312.297 154.208 310.514Z" fill="#C46413"/>
<path fill-rule="evenodd" clip-rule="evenodd" d="M313.463 401.019C312.729 405.621 310.034 407.23 305.367 405.862C307.216 402.642 309.917 401.024 313.463 401.019Z" fill="#D46528"/>
<path fill-rule="evenodd" clip-rule="evenodd" d="M74.8991 278.905C79.7016 281.835 80.4842 285.426 77.2572 289.661C68.3909 287.898 67.6028 284.315 74.8991 278.905Z" fill="#949494"/>
<path fill-rule="evenodd" clip-rule="evenodd" d="M336.903 381.563C338.911 381.512 340.842 382.13 342.699 383.406C343.155 382.516 343.611 381.626 344.066 380.736C346.876 381.747 347.311 383.093 345.37 384.773C345.971 389.44 344.883 393.759 342.117 397.712C343.007 398.168 343.897 398.624 344.787 399.079C333.788 411.053 324.718 424.384 317.575 439.073C320.25 432.028 323.3 424.973 326.72 417.916C321.263 427.132 314.925 435.492 307.699 443.005C310.542 439.573 310.12 436.74 306.438 434.495C306.817 433.566 307.492 432.979 308.467 432.726C308.148 432.046 307.632 431.59 306.914 431.369C308.8 430.851 310.153 429.668 310.973 427.83C305.07 425.37 299.049 423.232 292.921 421.398C290.535 421.671 288.144 421.952 285.757 422.225C275.59 426.872 265.051 429.903 254.141 431.318C253.548 431.014 253.402 430.568 253.707 429.972C265.807 426.684 277.772 422.698 289.599 418.012C295.098 414.154 300.353 410.104 305.367 405.862C310.034 407.229 312.73 405.621 313.463 401.019C317.127 395.908 321.493 391.402 326.56 387.503C337.344 374.498 344.345 359.725 347.552 343.201C349.995 343.385 350.578 344.806 349.3 347.467C345.012 358.336 340.287 369.028 335.133 379.533C335.389 380.507 335.975 381.189 336.903 381.563Z" fill="#EDE4D7"/>
<path fill-rule="evenodd" clip-rule="evenodd" d="M336.903 381.562C343.538 384.094 344.397 387.903 339.478 392.991C329.999 395.396 327.792 392.391 332.855 383.984C334.119 382.968 335.472 382.155 336.903 381.562Z" fill="#131212"/>
<path fill-rule="evenodd" clip-rule="evenodd" d="M318.782 405.989C322.406 407.238 323.425 409.636 321.844 413.174C318.577 416.197 315.444 416.099 312.455 412.862C312.685 412.047 312.92 411.223 313.149 410.408C314.859 408.733 316.734 407.266 318.782 405.989Z" fill="#181717"/>
<path fill-rule="evenodd" clip-rule="evenodd" d="M132.613 324.174C132.958 323.172 133.562 322.357 134.425 321.732C137.951 320.717 141.393 319.48 144.746 318.028C148.94 317.501 153.114 317.391 157.272 317.699C156.715 319.256 155.734 320.439 154.331 321.249C149.139 321.804 144.061 322.946 139.093 324.683C136.853 325.289 134.695 325.117 132.613 324.174Z" fill="#1E0906"/>
<path fill-rule="evenodd" clip-rule="evenodd" d="M166.523 332.545C161.848 334.252 156.918 335.47 151.73 336.207C150.758 337.506 149.629 338.614 148.344 339.529C146.733 338.929 145.249 338.169 143.893 337.251C143.446 337.393 142.994 337.543 142.547 337.685C143.173 338.544 143.985 339.151 144.99 339.497C143.373 341.107 141.571 342.432 139.586 343.471C139.075 341.087 138.426 338.698 137.641 336.297C147.085 333.559 156.712 332.309 166.523 332.545Z" fill="#DF873D"/>
<path fill-rule="evenodd" clip-rule="evenodd" d="M130.705 336.679C131.79 338.414 131.622 340.204 130.207 342.041C127.931 341.427 125.699 340.666 123.52 339.742C122.926 339.438 122.334 339.134 121.74 338.83C119.123 335.525 116.771 332.075 114.682 328.477C113.341 326.33 111.796 324.225 110.046 322.172C102.909 317.362 95.2639 314.01 87.1082 312.116C87.5638 311.226 88.0195 310.336 88.4751 309.446C90.8072 310.561 93.1206 310.431 95.4108 309.064C103.749 311.692 111.619 315.339 119.011 320.021C122.655 324.291 126.564 328.358 130.747 332.207C129.54 333.813 129.523 335.31 130.705 336.679Z" fill="#F25E06"/>
<path fill-rule="evenodd" clip-rule="evenodd" d="M166.523 332.545C167.117 332.849 167.71 333.152 168.304 333.456C167.872 336.808 166.943 340.084 165.528 343.269C164.173 342.587 162.828 342.652 161.501 343.455C155.221 348.385 151.062 354.681 149.023 362.344C147.36 363.875 145.49 364.602 143.412 364.527C142.453 357.352 141.18 350.331 139.586 343.471C141.572 342.432 143.373 341.107 144.99 339.497C143.986 339.151 143.173 338.544 142.548 337.685C142.995 337.543 143.447 337.393 143.894 337.251C145.25 338.17 146.734 338.929 148.344 339.529C149.629 338.614 150.758 337.507 151.73 336.207C156.919 335.47 161.848 334.252 166.523 332.545Z" fill="#FB9333"/>
<path fill-rule="evenodd" clip-rule="evenodd" d="M174.344 356.77C174.929 358.204 174.911 359.701 174.301 361.242C173.162 364.13 173.211 366.964 174.445 369.741C174.068 370.11 173.693 370.48 173.316 370.848C170.76 370.495 168.23 369.952 165.729 369.211C166.211 368.335 166.067 367.52 165.305 366.748C163.862 367.043 162.972 366.587 162.634 365.381C163.825 363.395 164.886 361.321 165.824 359.15C166.03 353.683 165.928 348.396 165.527 343.27C166.942 340.085 167.871 336.809 168.303 333.457C176.209 331.246 177.969 334.024 173.591 341.781C174.281 343.145 174.49 344.567 174.222 346.036C172.205 348.115 170.619 350.482 169.458 353.146C171.288 354.105 172.917 355.31 174.344 356.77Z" fill="#F65D06"/>
<path fill-rule="evenodd" clip-rule="evenodd" d="M174.344 356.77C172.918 355.309 171.288 354.104 169.459 353.146C170.619 350.482 172.205 348.114 174.222 346.035C174.491 344.566 174.282 343.145 173.591 341.78C177.97 334.023 176.209 331.246 168.303 333.456C167.71 333.152 167.117 332.849 166.523 332.545C170.158 329.901 174.036 329.639 178.158 331.761C176.483 340.07 175.211 348.406 174.344 356.77Z" fill="#BF5013"/>
<path fill-rule="evenodd" clip-rule="evenodd" d="M289.238 408.841C285.058 412.284 280.556 415.226 275.738 417.658C277.863 414.701 280.348 412.041 283.193 409.678C285.121 408.8 287.137 408.517 289.238 408.841Z" fill="#C46418"/>
<path fill-rule="evenodd" clip-rule="evenodd" d="M165.527 343.269C165.928 348.395 166.03 353.683 165.824 359.149C164.886 361.32 163.825 363.394 162.634 365.38C162.972 366.586 163.862 367.042 165.305 366.747C166.067 367.519 166.211 368.334 165.729 369.211C165.423 369.807 165.123 370.395 164.817 370.991C161.682 371.263 158.553 371.525 155.418 371.797C152.617 371.768 149.938 371.149 147.385 369.932C146.93 370.822 146.474 371.712 146.018 372.602C143.322 370.627 142.453 367.935 143.411 364.528C145.489 364.603 147.359 363.875 149.022 362.344C151.061 354.682 155.22 348.385 161.5 343.455C162.828 342.652 164.172 342.587 165.527 343.269Z" fill="#F37407"/>
<path fill-rule="evenodd" clip-rule="evenodd" d="M114.682 328.477C111.088 324.334 106.796 321.014 101.806 318.516C95.4831 315.313 88.7883 313.762 81.7247 313.854C83.3661 312.627 85.1595 312.051 87.108 312.116C95.2637 314.01 102.909 317.362 110.045 322.172C111.796 324.225 113.341 326.33 114.682 328.477Z" fill="#A84E18"/>
<path fill-rule="evenodd" clip-rule="evenodd" d="M134.329 331.794C133.565 332.942 133.103 334.211 132.952 335.583C134.962 342.161 136.243 348.805 136.788 355.521C135.602 354.914 134.414 354.306 133.228 353.698C135.906 350.104 135.49 346.891 131.977 344.071C131.085 343.985 130.188 343.908 129.296 343.822C130.57 349.372 130.368 354.886 128.692 360.364C127.289 355.231 125.848 349.999 124.368 344.67C124.084 343.03 123.805 341.382 123.52 339.742C125.7 340.667 127.931 341.427 130.207 342.042C131.623 340.205 131.79 338.415 130.705 336.68C130.408 333.832 131.616 332.203 134.329 331.794Z" fill="#D35A11"/>
<path fill-rule="evenodd" clip-rule="evenodd" d="M121.739 338.83C122.333 339.134 122.926 339.437 123.52 339.741C123.804 341.381 124.083 343.029 124.367 344.669C122.63 343.128 121.753 341.185 121.739 338.83Z" fill="#853213"/>
<path fill-rule="evenodd" clip-rule="evenodd" d="M174.302 361.243C175.183 364.603 176.043 368.043 176.888 371.553C174.515 372.417 172.124 372.698 169.724 372.38C168.039 372.124 166.405 371.658 164.818 370.992C165.123 370.396 165.424 369.808 165.729 369.212C168.23 369.953 170.761 370.495 173.317 370.849C173.693 370.48 174.069 370.11 174.445 369.741C173.211 366.964 173.163 364.131 174.302 361.243Z" fill="#B9501B"/>
<path fill-rule="evenodd" clip-rule="evenodd" d="M72.4098 305.716C70.5602 307.679 68.531 309.448 66.3219 311.025C65.6665 313.183 65.7228 315.268 66.4863 317.288C66.0307 318.178 65.575 319.068 65.1194 319.958C63.8889 316.138 63.9998 312.263 65.4529 308.333C67.3786 306.353 69.7009 305.475 72.4098 305.716Z" fill="#BF8043"/>
<path fill-rule="evenodd" clip-rule="evenodd" d="M274.847 417.202C272.651 419.65 269.955 421.258 266.751 422.045C268.995 419.599 271.696 417.982 274.847 417.202Z" fill="#7D3D0E"/>
<path fill-rule="evenodd" clip-rule="evenodd" d="M306.438 434.496C310.119 436.74 310.542 439.573 307.699 443.005C305.07 443.929 302.986 443.244 301.457 440.933C302.35 438.211 304.011 436.062 306.438 434.496Z" fill="#1F1F1F"/>
<path fill-rule="evenodd" clip-rule="evenodd" d="M100.313 334.602C100.017 334.45 99.7194 334.298 99.4229 334.147C96.456 332.628 93.4883 331.109 90.5214 329.59C89.9153 330.774 89.3048 331.967 88.6988 333.151C88.4992 331.453 88.9637 329.815 90.0868 328.244C93.9731 329.874 97.3788 331.999 100.313 334.602Z" fill="#81330B"/>
<path fill-rule="evenodd" clip-rule="evenodd" d="M82.5736 318.782C81.6343 320.211 80.2859 321.015 78.5256 321.203C76.1444 324.523 74.4705 328.16 73.5028 332.113C73.0515 331.41 72.9072 330.595 73.0789 329.649C74.1574 326.078 75.8251 322.82 78.091 319.857C79.5673 319.254 81.0617 318.895 82.5736 318.782Z" fill="#8B5933"/>
<path fill-rule="evenodd" clip-rule="evenodd" d="M182.249 372.051C185.415 374.346 188.146 377.058 190.446 380.178C190.649 382.282 190.705 384.367 190.61 386.441C187.285 381.931 184.499 377.134 182.249 372.051Z" fill="#C78041"/>
<path fill-rule="evenodd" clip-rule="evenodd" d="M75.4518 315.137C73.8558 320.465 70.5459 324.006 65.5121 325.776C64.2759 324.267 63.9963 322.619 64.6642 320.849C66.1481 321.608 67.6311 322.368 69.115 323.127C70.606 319.824 72.7216 317.154 75.4518 315.137Z" fill="#B55B1A"/>
<path fill-rule="evenodd" clip-rule="evenodd" d="M99.4221 334.147C101.781 337.523 104.289 340.672 106.936 343.61C94.2578 339.222 93.5743 340.557 104.885 347.616C102.601 347.009 100.451 346.088 98.4262 344.872C97.6622 346.019 97.2003 347.288 97.0487 348.66C97.9004 352.904 98.1571 357.158 97.8226 361.413C95.6929 361.413 93.7622 360.795 92.026 359.57C91.7296 359.418 91.4323 359.266 91.1359 359.114C91.8998 357.966 92.3618 356.697 92.5134 355.326C91.186 353.051 90.7621 350.587 91.2416 347.934C90.6069 346.565 89.5707 345.663 88.1366 345.221C88.2869 344.928 88.4418 344.625 88.5922 344.331C89.367 341.661 89.8421 338.905 90.012 336.071C89.7827 334.965 89.3456 333.989 88.6979 333.151C89.3039 331.968 89.9145 330.775 90.5205 329.591C93.4874 331.109 96.4552 332.629 99.4221 334.147Z" fill="#F66505"/>
<path fill-rule="evenodd" clip-rule="evenodd" d="M136.789 355.52C136.114 357.152 135.056 358.486 133.62 359.515C135.354 360.436 136.304 362.237 136.476 364.909C134.444 364.913 132.432 365.186 130.431 365.746C129.382 364.029 128.801 362.238 128.693 360.363C130.369 354.885 130.57 349.371 129.296 343.821C130.188 343.907 131.085 343.984 131.977 344.07C135.49 346.89 135.906 350.103 133.228 353.697C134.415 354.305 135.602 354.912 136.789 355.52Z" fill="#F65D06"/>
<path fill-rule="evenodd" clip-rule="evenodd" d="M82.5726 318.782C82.869 318.934 83.1663 319.086 83.4627 319.238C84.3529 319.694 85.243 320.149 86.1332 320.605C83.3921 326.324 80.3556 331.892 77.0308 337.29C75.7848 337.854 74.5877 338.365 73.4384 338.821C73.1524 336.529 73.1735 334.293 73.5018 332.114C74.4695 328.16 76.1434 324.523 78.5246 321.204C80.2849 321.015 81.6333 320.211 82.5726 318.782Z" fill="#F9933B"/>
<path fill-rule="evenodd" clip-rule="evenodd" d="M284.098 432.048C288.836 435.507 288.733 438.633 283.786 441.437C279.038 439.748 278.389 436.99 281.852 433.145C282.736 432.991 283.486 432.623 284.098 432.048Z" fill="#171717"/>
<path fill-rule="evenodd" clip-rule="evenodd" d="M99.4219 334.146C99.7183 334.298 100.016 334.45 100.312 334.602C108.531 339.337 114.427 346.107 118.01 354.895C118.294 356.378 117.985 357.713 117.077 358.911C116.019 356.887 115.296 354.641 114.905 352.182C112.63 348.906 109.971 346.051 106.935 343.609C104.289 340.671 101.781 337.522 99.4219 334.146Z" fill="#B45D17"/>
<path fill-rule="evenodd" clip-rule="evenodd" d="M88.6982 333.151C89.346 333.988 89.7831 334.965 90.0123 336.071C89.8424 338.905 89.3674 341.661 88.5925 344.331C86.9339 340.674 86.9728 336.941 88.6982 333.151Z" fill="#AF4A1B"/>
<path fill-rule="evenodd" clip-rule="evenodd" d="M295.173 443.334C298.509 445.266 298.565 447.351 295.337 449.597C293.272 449.371 291.714 448.393 290.669 446.645C291.162 444.134 292.66 443.036 295.173 443.334Z" fill="#1C1C1C"/>
<path fill-rule="evenodd" clip-rule="evenodd" d="M190.611 386.441C194.816 387.728 197.173 390.44 197.69 394.558C199.923 397.071 201.541 399.764 202.533 402.654C197.074 398.253 193.1 392.848 190.611 386.441Z" fill="#BE783D"/>
<path fill-rule="evenodd" clip-rule="evenodd" d="M136.789 355.52C138.581 360.291 139.429 365.219 139.332 370.303C137.161 372.764 134.472 373.264 131.268 371.792C128.778 368.316 127.919 364.506 128.693 360.363C128.801 362.239 129.382 364.03 130.431 365.747C132.432 365.187 134.444 364.914 136.476 364.909C136.304 362.237 135.354 360.437 133.62 359.516C135.056 358.487 136.114 357.152 136.789 355.52Z" fill="#D0550F"/>
<path fill-rule="evenodd" clip-rule="evenodd" d="M79.6273 346.482C79.0316 344.391 78.4573 342.221 77.8998 339.981C76.6441 340.72 75.593 341.676 74.742 342.858C75.0734 345.365 74.6054 347.743 73.3327 350.001C72.1761 346.319 72.2104 342.596 73.4384 338.821C74.5877 338.364 75.7848 337.854 77.0308 337.29C80.3556 331.892 83.3922 326.324 86.1332 320.604C85.243 320.149 84.3529 319.693 83.4627 319.237C84.2458 318.346 85.2925 318.129 86.5994 318.596C87.2635 319.127 87.933 319.649 88.597 320.18C85.4223 323.891 83.0729 328.115 81.545 332.86C80.9106 337.422 80.2683 341.969 79.6273 346.482Z" fill="#C87737"/>
<path fill-rule="evenodd" clip-rule="evenodd" d="M112.14 408.061C108.194 406.232 104.415 404.106 100.796 401.692C102.772 401.434 104.345 400.554 105.517 399.053C116.987 394.41 126.076 386.896 132.788 376.502C147.328 375.598 161.939 375.584 176.617 376.47C178.109 376.481 179.296 377.088 180.178 378.292C186.915 393.064 196.784 405.239 209.797 414.798C202.695 414.129 195.545 413.468 188.349 412.806C180.483 409.151 172.614 405.505 164.749 401.85C157.032 399.54 149.283 399.314 141.499 401.183C132.217 405.857 122.43 408.149 112.14 408.061Z" fill="#EDE4D7"/>
<path fill-rule="evenodd" clip-rule="evenodd" d="M175.372 389.875C177.449 390.938 179.526 392.001 181.603 393.064C180.822 394.945 179.762 396.649 178.424 398.177C175.131 399.491 173.053 398.428 172.193 394.988C172.546 392.81 173.606 391.105 175.372 389.875Z" fill="#161616"/>
<path fill-rule="evenodd" clip-rule="evenodd" d="M244.805 425.415C238.802 426.196 233.152 424.798 227.85 421.23C224.155 419.249 220.6 417.047 217.178 414.644C216.036 413.857 215.599 412.881 215.864 411.725C222.981 416.469 230.399 420.266 238.118 423.116C240.488 423.352 242.715 424.121 244.805 425.415Z" fill="#CE7D39"/>
<path fill-rule="evenodd" clip-rule="evenodd" d="M253.706 429.972C253.401 430.568 253.547 431.013 254.141 431.317C253.056 432.211 251.788 432.495 250.331 432.176C247.43 432.162 244.75 431.543 242.299 430.311C246.157 430.5 249.963 430.381 253.706 429.972Z" fill="#6F7678"/>
<path fill-rule="evenodd" clip-rule="evenodd" d="M88.1377 345.221C89.5718 345.663 90.608 346.564 91.2426 347.934C90.7632 350.587 91.1871 353.05 92.5145 355.325C92.3628 356.697 91.9009 357.966 91.1369 359.114C89.8459 354.51 88.8477 349.876 88.1377 345.221Z" fill="#C8581C"/>
<path fill-rule="evenodd" clip-rule="evenodd" d="M154.793 390.574C155.98 391.182 157.167 391.789 158.354 392.397C157.283 395.219 155.49 395.796 152.97 394.135C153.576 392.951 154.187 391.758 154.793 390.574Z" fill="#212121"/>
<path fill-rule="evenodd" clip-rule="evenodd" d="M79.6281 346.482C80.4918 350.968 81.3469 355.517 82.1823 360.146C81.0327 363.49 79.0139 364.141 76.1262 362.102C74.4535 358.224 73.5193 354.195 73.3336 350C74.6063 347.742 75.0742 345.364 74.7428 342.858C75.5939 341.675 76.645 340.719 77.9007 339.98C78.4582 342.22 79.0325 344.39 79.6281 346.482Z" fill="#DE7418"/>
<path fill-rule="evenodd" clip-rule="evenodd" d="M237.557 435.185C236.857 435.636 236.036 435.777 235.093 435.609C229.218 433.523 223.954 430.638 219.298 426.962C225.191 430.159 231.276 432.903 237.557 435.185Z" fill="#A7A7A7"/>
<path fill-rule="evenodd" clip-rule="evenodd" d="M267.451 442.624C273.005 446.051 273.268 449.927 268.236 454.26C262.046 456.068 259.456 453.81 260.473 447.478C262.668 445.658 264.995 444.041 267.451 442.624Z" fill="#8B8B8B"/>
<path fill-rule="evenodd" clip-rule="evenodd" d="M266.519 446.641C267.409 447.097 268.299 447.552 269.19 448.008C268.28 451.418 266.331 452.297 263.351 450.636C264.249 449.164 265.302 447.838 266.519 446.641Z" fill="#EFEFEF"/>
<path fill-rule="evenodd" clip-rule="evenodd" d="M186.299 416.813C178.068 413.475 169.751 409.971 161.354 406.29C162.384 405.953 163.502 405.963 164.707 406.322C172.05 409.519 179.249 413.013 186.299 416.813Z" fill="#8A8A8A"/>
<path fill-rule="evenodd" clip-rule="evenodd" d="M241.53 440.591C248.825 444.19 249.01 448.217 242.087 452.671C235.25 450.654 234.314 446.996 239.284 441.688C240.168 441.534 240.918 441.165 241.53 440.591Z" fill="#979797"/>
<path fill-rule="evenodd" clip-rule="evenodd" d="M118.318 369.658C114.445 389.526 102.429 399.102 82.2679 398.387C73.3061 395.845 65.5225 391.299 58.917 384.75C57.5866 383.462 57.6684 382.571 59.166 382.069C62.9083 383.22 66.0344 383.697 68.5444 383.499C69.4821 382.137 69.8683 380.649 69.7046 379.038C67.5338 377.713 65.6848 376.205 64.157 374.513C69.7249 377.554 75.4398 380.288 81.2978 382.725C89.3857 382.057 97.231 380.265 104.828 377.357C107.425 374.867 109.981 372.434 112.5 370.05C113.391 370.506 114.281 370.962 115.171 371.417C115.655 370.126 116.415 369.009 117.439 368.084C117.524 368.757 117.819 369.279 118.318 369.658Z" fill="#FB9334"/>
<path fill-rule="evenodd" clip-rule="evenodd" d="M106.936 343.61C109.972 346.051 112.63 348.906 114.905 352.182C115.297 354.641 116.02 356.887 117.078 358.911C118.387 362.368 118.801 365.95 118.318 369.657C117.819 369.278 117.524 368.756 117.438 368.083C116.414 369.008 115.655 370.125 115.17 371.416C114.28 370.96 113.39 370.505 112.5 370.049C109.981 372.433 107.425 374.866 104.828 377.356C97.2305 380.264 89.3852 382.056 81.2974 382.724C75.4393 380.287 69.7244 377.553 64.1565 374.512C62.6355 371.722 61.3214 368.803 60.2142 365.753C60.3658 364.382 60.8277 363.113 61.5917 361.965C60.4456 361.625 59.7058 360.876 59.3769 359.708C59.5683 353.369 61.5598 347.648 65.3532 342.546C65.9493 342.222 66.5447 342.156 67.1441 342.339C67.6626 351.165 70.1193 359.533 74.5096 367.454C80.9803 371.698 86.8755 371.155 92.1907 365.832C92.8654 363.717 92.8137 361.624 92.0263 359.569C93.7625 360.795 95.6931 361.412 97.8229 361.413C98.1574 357.158 97.9006 352.904 97.049 348.659C97.2006 347.288 97.6625 346.019 98.4265 344.871C100.452 346.087 102.601 347.008 104.885 347.615C93.5746 340.556 94.258 339.221 106.936 343.61Z" fill="#F37406"/>
<path fill-rule="evenodd" clip-rule="evenodd" d="M183.087 425.279C188.958 426.969 190.117 430.191 186.574 434.927C182.757 434.905 181.136 432.952 181.71 429.067C181.861 427.696 182.323 426.427 183.087 425.279Z" fill="#171717"/>
<path fill-rule="evenodd" clip-rule="evenodd" d="M149.654 413.782C150.544 414.238 151.434 414.694 152.325 415.149C151.564 416.636 150.807 418.113 150.046 419.6C148.86 418.993 147.672 418.385 146.486 417.777C147.182 416.123 148.239 414.788 149.654 413.782Z" fill="#1A1A1A"/>
<path fill-rule="evenodd" clip-rule="evenodd" d="M67.1442 342.34C66.5449 342.157 65.9494 342.223 65.3533 342.547C61.56 347.649 59.5685 353.37 59.377 359.709C59.7059 360.877 60.4457 361.626 61.5919 361.966C60.8279 363.114 60.366 364.383 60.2144 365.754C61.3215 368.804 62.6356 371.723 64.1567 374.513C65.6845 376.205 67.5334 377.713 69.7043 379.037C69.8679 380.649 69.4818 382.136 68.544 383.499C66.0341 383.697 62.9079 383.22 59.1656 382.068C57.668 382.571 57.5863 383.462 58.9167 384.749C65.5221 391.299 73.3057 395.844 82.2675 398.387C63.3878 395.857 51.8642 385.083 47.6887 366.083C47.6287 355.492 50.7022 345.832 56.9074 337.1C60.4823 334.099 64.3817 331.602 68.6063 329.608C69.0126 333.938 68.5252 338.183 67.1442 342.34Z" fill="#EF8F39"/>
<path fill-rule="evenodd" clip-rule="evenodd" d="M105.517 399.054C104.346 400.555 102.772 401.434 100.796 401.692C104.415 404.106 108.194 406.232 112.141 408.061C107.228 407.018 102.777 404.74 98.7882 401.226C100.915 400.045 103.159 399.318 105.517 399.054Z" fill="#8B8580"/>
<path fill-rule="evenodd" clip-rule="evenodd" d="M116.115 413.466C113.456 414.025 110.773 414.146 108.061 413.837C106.055 412.922 103.969 412.607 101.809 412.883C102.265 411.993 102.72 411.103 103.176 410.213C101.445 409.147 99.5913 408.378 97.6072 407.924C97.6486 409.697 96.6001 410.284 94.4599 409.683C90.9038 408.323 87.2614 407.391 83.529 406.896C87.4175 406.775 91.3732 406.362 95.3924 405.667C102.056 409.044 108.966 411.637 116.115 413.466Z" fill="#CBCACD"/>
<path fill-rule="evenodd" clip-rule="evenodd" d="M108.061 413.836C109.314 417.579 107.878 419.652 103.753 420.057C98.2843 418.853 97.6351 416.465 101.809 412.883C103.969 412.607 106.054 412.922 108.061 413.836Z" fill="#242423"/>
<path fill-rule="evenodd" clip-rule="evenodd" d="M152.981 440.2C159.393 443.561 159.803 447.512 154.211 452.064C148.09 454.098 145.945 452.068 147.784 445.965C150.029 444.564 151.762 442.643 152.981 440.2Z" fill="#868686"/>
<path fill-rule="evenodd" clip-rule="evenodd" d="M152.94 444.672C153.83 445.128 154.72 445.583 155.61 446.039C154.74 448.301 153.089 449.332 150.661 449.123C150.384 447.105 151.141 445.627 152.94 444.672Z" fill="#E0E0E0"/>
<path fill-rule="evenodd" clip-rule="evenodd" d="M271.948 4.66818C273.672 5.22473 275.001 6.28695 275.943 7.83658C277.616 19.9604 278.695 32.1174 279.176 44.3167C278.839 47.458 278.214 50.508 277.301 53.4672C275.527 52.7841 274.493 51.5131 274.207 49.6365C274.555 36.6597 273.854 23.7638 272.113 10.931C266.67 8.35849 262.852 9.96508 260.663 15.7423C256.824 13.418 256.555 10.6515 259.847 7.46078C263.809 5.80412 267.844 4.87044 271.948 4.66818Z" fill="#1A1A1A"/>
</svg>
